<svg xmlns="http://www.w3.org/2000/svg" xmlns:xlink="http://www.w3.org/1999/xlink" version="1.1" width="30" height="30" viewBox="0 0 256 256" xml:space="preserve">

<defs>
</defs>
<g style="stroke: none; stroke-width: 0; stroke-dasharray: none; stroke-linecap: butt; stroke-linejoin: miter; stroke-miterlimit: 10; fill: none; fill-rule: nonzero; opacity: 1;" transform="translate(1.4065934065934016 1.4065934065934016) scale(2.81 2.81)" >
	<path d="M 65.692 30.03 l -1.419 3.572 L 53.29 29.238 l -4.364 10.984 l 3.572 1.419 c 3.795 1.508 5.649 5.806 4.142 9.601 c -1.508 3.795 -5.806 5.649 -9.601 4.142 l -3.572 -1.419 l -4.364 10.984 l 35.71 14.187 L 89 43.425 l -10.984 -4.364 l 1.419 -3.572 c 1.508 -3.795 -0.347 -8.094 -4.142 -9.601 C 71.499 24.38 67.2 26.235 65.692 30.03 z" style="stroke: none; stroke-width: 1; stroke-dasharray: none; stroke-linecap: butt; stroke-linejoin: miter; stroke-miterlimit: 10; fill: rgb(247,129,50); fill-rule: nonzero; opacity: 1;" transform=" matrix(1 0 0 1 0 0) " stroke-linecap="round" />
	<path d="M 27.606 53.133 V 49.29 h 11.819 V 37.471 h -3.843 c -4.084 0 -7.394 -3.31 -7.394 -7.394 s 3.31 -7.394 7.394 -7.394 h 3.843 V 10.865 H 1 V 49.29 h 11.819 v 3.843 c 0 4.084 3.31 7.394 7.394 7.394 C 24.296 60.527 27.606 57.217 27.606 53.133 z" style="stroke: none; stroke-width: 1; stroke-dasharray: none; stroke-linecap: butt; stroke-linejoin: miter; stroke-miterlimit: 10; fill: rgb(232,46,57); fill-rule: nonzero; opacity: 1;" transform=" matrix(1 0 0 1 0 0) " stroke-linecap="round" />
	<path d="M 74.813 80.136 c -0.125 0 -0.251 -0.023 -0.369 -0.07 l -35.71 -14.188 c -0.513 -0.204 -0.764 -0.785 -0.56 -1.299 l 4.363 -10.983 c 0.098 -0.246 0.29 -0.444 0.533 -0.549 c 0.243 -0.105 0.52 -0.109 0.765 -0.012 l 3.572 1.419 c 3.277 1.302 7.001 -0.305 8.303 -3.581 s -0.305 -7.001 -3.581 -8.303 l -3.572 -1.419 c -0.246 -0.098 -0.444 -0.29 -0.549 -0.533 c -0.105 -0.244 -0.109 -0.519 -0.012 -0.765 l 4.364 -10.983 c 0.205 -0.513 0.786 -0.765 1.299 -0.56 l 10.054 3.994 l 1.05 -2.643 l 0 0 c 1.709 -4.302 6.598 -6.413 10.9 -4.702 c 4.302 1.709 6.41 6.599 4.702 10.9 l -1.05 2.643 l 10.054 3.995 c 0.514 0.204 0.764 0.785 0.561 1.298 l -14.187 35.71 c -0.099 0.246 -0.29 0.444 -0.533 0.549 C 75.083 80.108 74.948 80.136 74.813 80.136 z M 40.401 64.388 l 33.852 13.449 l 13.448 -33.852 l -10.054 -3.995 c -0.514 -0.204 -0.764 -0.785 -0.561 -1.298 l 1.419 -3.572 c 1.302 -3.276 -0.305 -7.001 -3.581 -8.303 c -3.278 -1.303 -7.001 0.305 -8.303 3.582 l -1.419 3.572 c -0.205 0.514 -0.787 0.764 -1.299 0.56 l -10.054 -3.994 l -3.626 9.125 l 2.643 1.05 c 2.084 0.828 3.721 2.417 4.608 4.476 s 0.921 4.34 0.094 6.424 c -1.709 4.302 -6.598 6.409 -10.9 4.702 l -2.643 -1.05 L 40.401 64.388 z" style="stroke: none; stroke-width: 1; stroke-dasharray: none; stroke-linecap: butt; stroke-linejoin: miter; stroke-miterlimit: 10; fill: rgb(0,0,0); fill-rule: nonzero; opacity: 1;" transform=" matrix(1 0 0 1 0 0) " stroke-linecap="round" />
	<path d="M 20.212 61.527 c -4.628 0 -8.394 -3.766 -8.394 -8.395 V 50.29 H 1 c -0.552 0 -1 -0.447 -1 -1 V 10.865 c 0 -0.552 0.448 -1 1 -1 h 38.425 c 0.552 0 1 0.448 1 1 v 11.818 c 0 0.552 -0.448 1 -1 1 h -3.844 c -3.525 0 -6.394 2.868 -6.394 6.394 s 2.868 6.394 6.394 6.394 h 3.844 c 0.552 0 1 0.448 1 1 V 49.29 c 0 0.553 -0.448 1 -1 1 H 28.606 v 2.843 C 28.606 57.762 24.841 61.527 20.212 61.527 z M 2 48.29 h 10.819 c 0.552 0 1 0.447 1 1 v 3.843 c 0 3.526 2.868 6.395 6.394 6.395 c 3.526 0 6.394 -2.868 6.394 -6.395 V 49.29 c 0 -0.553 0.448 -1 1 -1 h 10.819 v -9.819 h -2.844 c -4.628 0 -8.394 -3.766 -8.394 -8.394 s 3.765 -8.394 8.394 -8.394 h 2.844 v -9.818 H 2 V 48.29 z" style="stroke: none; stroke-width: 1; stroke-dasharray: none; stroke-linecap: butt; stroke-linejoin: miter; stroke-miterlimit: 10; fill: rgb(0,0,0); fill-rule: nonzero; opacity: 1;" transform=" matrix(1 0 0 1 0 0) " stroke-linecap="round" />
</g>
</svg>