<svg xmlns="http://www.w3.org/2000/svg" xmlns:xlink="http://www.w3.org/1999/xlink" version="1.1" width="30" height="30" viewBox="0 0 256 256" xml:space="preserve">

<defs>
</defs>
<g style="stroke: none; stroke-width: 0; stroke-dasharray: none; stroke-linecap: butt; stroke-linejoin: miter; stroke-miterlimit: 10; fill: none; fill-rule: nonzero; opacity: 1;" transform="translate(1.4065934065934016 1.4065934065934016) scale(2.81 2.81)" >
	<rect x="33.61" y="4.98" rx="0" ry="0" width="21.51" height="78.77" style="stroke: none; stroke-width: 1; stroke-dasharray: none; stroke-linecap: butt; stroke-linejoin: miter; stroke-miterlimit: 10; fill: #7DCE70; fill-rule: nonzero; opacity: 1;" transform=" matrix(0.7071 -0.7071 0.7071 0.7071 -18.3759 44.3634) "/>
	<polygon points="80.99,66.27 66.27,80.99 75.73,84.78 84.78,75.73 " style="stroke: none; stroke-width: 1; stroke-dasharray: none; stroke-linecap: butt; stroke-linejoin: miter; stroke-miterlimit: 10; fill: #7DCE70; fill-rule: nonzero; opacity: 1;" transform="  matrix(1 0 0 1 0 0) "/>
	<path d="M 85.583 77.756 l -7.828 7.828 l 10.873 4.345 C 88.749 89.977 88.875 90 89 90 c 0.26 0 0.516 -0.102 0.707 -0.293 c 0.283 -0.282 0.37 -0.707 0.222 -1.078 L 85.583 77.756 z" style="stroke: none; stroke-width: 1; stroke-dasharray: none; stroke-linecap: butt; stroke-linejoin: miter; stroke-miterlimit: 10; fill: #7DCE70; fill-rule: nonzero; opacity: 1;" transform=" matrix(1 0 0 1 0 0) " stroke-linecap="round" />
	<path d="M 7.495 22.702 L 22.702 7.495 l -4.345 -4.345 C 16.326 1.119 13.626 0 10.753 0 S 5.181 1.119 3.15 3.15 C 1.119 5.181 0 7.881 0 10.753 s 1.119 5.573 3.149 7.604 L 7.495 22.702 z" style="stroke: none; stroke-width: 1; stroke-dasharray: none; stroke-linecap: butt; stroke-linejoin: miter; stroke-miterlimit: 10; fill: #7DCE70; fill-rule: nonzero; opacity: 1;" transform=" matrix(1 0 0 1 0 0) " stroke-linecap="round" />
</g>
</svg>