<svg xmlns="http://www.w3.org/2000/svg" xmlns:xlink="http://www.w3.org/1999/xlink" version="1.1" width="30" height="30" viewBox="0 0 256 256" xml:space="preserve">

<defs>
</defs>
<g style="stroke: none; stroke-width: 0; stroke-dasharray: none; stroke-linecap: butt; stroke-linejoin: miter; stroke-miterlimit: 10; fill: none; fill-rule: nonzero; opacity: 1;" transform="translate(1.4065934065934016 1.4065934065934016) scale(2.81 2.81)" >
	<path d="M 40.596 31.197 c -0.013 -7.349 -3.978 -14.122 -10.38 -17.73 L 15.831 5.36 C 11.68 3.02 6.479 3.732 3.11 7.101 s -4.081 8.57 -1.742 12.721 l 8.107 14.385 c 3.608 6.402 10.382 10.367 17.73 10.38 l 4.54 0.008 l 0 0 L 66.79 82.918 c 3.303 3.612 8.953 3.739 12.414 0.277 c 3.461 -3.461 3.335 -9.111 -0.277 -12.414 L 40.603 35.738 l 0 0 L 40.596 31.197 z" style="stroke: none; stroke-width: 1; stroke-dasharray: none; stroke-linecap: butt; stroke-linejoin: miter; stroke-miterlimit: 10; fill: rgb(130,212,101); fill-rule: nonzero; opacity: 1;" transform=" matrix(1 0 0 1 0 0) " stroke-linecap="round" />
	<path d="M 89.12 21.2 c -1.173 -1.173 -3.074 -1.173 -4.247 0 L 69.047 37.027 c -0.405 0.405 -0.935 0.607 -1.465 0.607 c -0.58 0 -1.16 -0.242 -1.576 -0.727 c -0.718 -0.838 -0.58 -2.118 0.201 -2.898 l 15.737 -15.738 c 1.173 -1.173 1.173 -3.074 0 -4.247 l -0.533 -0.533 c -1.173 -1.173 -3.074 -1.173 -4.247 0 L 61.339 29.318 c -0.405 0.405 -0.935 0.607 -1.465 0.607 c -0.58 0 -1.16 -0.242 -1.576 -0.727 c -0.718 -0.838 -0.58 -2.118 0.201 -2.898 l 15.737 -15.737 c 1.173 -1.173 1.173 -3.074 0 -4.247 l 0 0 c -1.134 -1.134 -2.96 -1.177 -4.146 -0.096 l -15.224 13.87 c -2.621 2.388 -4.149 5.745 -4.229 9.29 l -0.175 7.732 l -4.178 3.821 l -4.612 4.217 l -5.13 4.691 L 12.199 72.1 c -3.22 2.944 -3.682 8.002 -0.778 11.258 c 3.143 3.524 8.589 3.517 11.729 0.083 l 22.06 -24.124 l 9.646 -10.548 l 3.471 -3.795 l 7.732 -0.175 c 3.545 -0.08 6.902 -1.609 9.29 -4.229 l 13.87 -15.224 C 90.297 24.16 90.255 22.334 89.12 21.2 L 89.12 21.2 z" style="stroke: none; stroke-width: 1; stroke-dasharray: none; stroke-linecap: butt; stroke-linejoin: miter; stroke-miterlimit: 10; fill: rgb(130,212,101); fill-rule: nonzero; opacity: 1;" transform=" matrix(1 0 0 1 0 0) " stroke-linecap="round" />
</g>
</svg>