<svg xmlns="http://www.w3.org/2000/svg" xmlns:xlink="http://www.w3.org/1999/xlink" version="1.1" width="30" height="30" viewBox="-10 -10 300 300" xml:space="preserve">

<defs>
</defs>
<g style="stroke: none; stroke-width: 0; stroke-dasharray: none; stroke-linecap: butt; stroke-linejoin: miter; stroke-miterlimit: 10; fill: none; fill-rule: nonzero; opacity: 1;" transform="translate(1.4065934065934016 1.4065934065934016) scale(2.81 2.81)" >
	<circle cx="44.996" cy="38.456" r="37.456" style="stroke: none; stroke-width: 1; stroke-dasharray: none; stroke-linecap: butt; stroke-linejoin: miter; stroke-miterlimit: 10; fill: rgb(67,168,237); fill-rule: nonzero; opacity: 1;" transform="  matrix(1 0 0 1 0 0) "/>
	<path d="M 45 76.912 c -16.357 0 -30.957 -10.373 -36.329 -25.813 c -1.411 -4.055 -2.127 -8.309 -2.127 -12.644 C 6.544 17.251 23.795 0 45 0 c 21.205 0 38.456 17.251 38.456 38.456 c 0 4.334 -0.716 8.588 -2.127 12.645 C 75.956 66.539 61.356 76.912 45 76.912 z M 45 2 C 24.898 2 8.544 18.354 8.544 38.456 c 0 4.11 0.678 8.143 2.016 11.985 C 15.652 65.078 29.493 74.912 45 74.912 s 29.347 -9.833 34.44 -24.47 c 1.338 -3.844 2.016 -7.877 2.016 -11.986 C 81.456 18.354 65.102 2 45 2 z" style="stroke: none; stroke-width: 1; stroke-dasharray: none; stroke-linecap: butt; stroke-linejoin: miter; stroke-miterlimit: 10; fill: rgb(0,0,0); fill-rule: nonzero; opacity: 1;" transform=" matrix(1 0 0 1 0 0) " stroke-linecap="round" />
	<path d="M 45 76.912 c -11.514 0 -20.88 -17.251 -20.88 -38.456 C 24.12 17.251 33.486 0 45 0 s 20.881 17.251 20.881 38.456 C 65.881 59.661 56.514 76.912 45 76.912 z M 45 2 C 34.589 2 26.12 18.354 26.12 38.456 c 0 20.102 8.47 36.456 18.88 36.456 c 10.411 0 18.881 -16.354 18.881 -36.456 C 63.881 18.354 55.411 2 45 2 z" style="stroke: none; stroke-width: 1; stroke-dasharray: none; stroke-linecap: butt; stroke-linejoin: miter; stroke-miterlimit: 10; fill: rgb(0,0,0); fill-rule: nonzero; opacity: 1;" transform=" matrix(1 0 0 1 0 0) " stroke-linecap="round" />
	<path d="M 77.505 20.836 H 12.5 c -0.552 0 -1 -0.448 -1 -1 s 0.448 -1 1 -1 h 65.005 c 0.553 0 1 0.448 1 1 S 78.058 20.836 77.505 20.836 z" style="stroke: none; stroke-width: 1; stroke-dasharray: none; stroke-linecap: butt; stroke-linejoin: miter; stroke-miterlimit: 10; fill: rgb(0,0,0); fill-rule: nonzero; opacity: 1;" transform=" matrix(1 0 0 1 0 0) " stroke-linecap="round" />
	<rect x="44" y="1.02" rx="0" ry="0" width="2" height="74.89" style="stroke: none; stroke-width: 1; stroke-dasharray: none; stroke-linecap: butt; stroke-linejoin: miter; stroke-miterlimit: 10; fill: rgb(0,0,0); fill-rule: nonzero; opacity: 1;" transform=" matrix(1 0 0 1 0 0) "/>
	<path d="M 82.456 39.456 H 7.544 c -0.552 0 -1 -0.448 -1 -1 s 0.448 -1 1 -1 h 74.912 c 0.553 0 1 0.448 1 1 S 83.009 39.456 82.456 39.456 z" style="stroke: none; stroke-width: 1; stroke-dasharray: none; stroke-linecap: butt; stroke-linejoin: miter; stroke-miterlimit: 10; fill: rgb(0,0,0); fill-rule: nonzero; opacity: 1;" transform=" matrix(1 0 0 1 0 0) " stroke-linecap="round" />
	<path d="M 63.698 50.769 l -36.965 0 c -9.965 0 -18.595 7.453 -19.471 17.379 C 6.262 79.487 15.171 89 26.302 89 c 4.393 0 8.44 -1.483 11.667 -3.975 c 4.169 -3.219 9.94 -3.16 14.12 0.044 c 3.24 2.483 7.297 3.951 11.699 3.931 c 10.01 -0.046 18.461 -8.065 18.998 -18.061 C 83.378 59.903 74.605 50.769 63.698 50.769 z" style="stroke: none; stroke-width: 1; stroke-dasharray: none; stroke-linecap: butt; stroke-linejoin: miter; stroke-miterlimit: 10; fill: rgb(56,69,79); fill-rule: nonzero; opacity: 1;" transform=" matrix(1 0 0 1 0 0) " stroke-linecap="round" />
	<polygon points="37.82,66.59 30.8,66.59 30.8,59.57 24.21,59.57 24.21,66.59 17.19,66.59 17.19,73.18 24.21,73.18 24.21,80.2 30.8,80.2 30.8,73.18 37.82,73.18 " style="stroke: none; stroke-width: 1; stroke-dasharray: none; stroke-linecap: butt; stroke-linejoin: miter; stroke-miterlimit: 10; fill: rgb(175,182,187); fill-rule: nonzero; opacity: 1;" transform="  matrix(1 0 0 1 0 0) "/>
	<circle cx="61.64" cy="76.92" r="3.28" style="stroke: none; stroke-width: 1; stroke-dasharray: none; stroke-linecap: butt; stroke-linejoin: miter; stroke-miterlimit: 10; fill: rgb(90,210,113); fill-rule: nonzero; opacity: 1;" transform="  matrix(1 0 0 1 0 0) "/>
	<circle cx="61.64" cy="62.870000000000005" r="3.28" style="stroke: none; stroke-width: 1; stroke-dasharray: none; stroke-linecap: butt; stroke-linejoin: miter; stroke-miterlimit: 10; fill: rgb(251,198,22); fill-rule: nonzero; opacity: 1;" transform="  matrix(1 0 0 1 0 0) "/>
	<circle cx="53.76" cy="69.89" r="3.28" style="stroke: none; stroke-width: 1; stroke-dasharray: none; stroke-linecap: butt; stroke-linejoin: miter; stroke-miterlimit: 10; fill: rgb(117,139,222); fill-rule: nonzero; opacity: 1;" transform="  matrix(1 0 0 1 0 0) "/>
	<circle cx="69.53" cy="69.89" r="3.28" style="stroke: none; stroke-width: 1; stroke-dasharray: none; stroke-linecap: butt; stroke-linejoin: miter; stroke-miterlimit: 10; fill: rgb(215,90,74); fill-rule: nonzero; opacity: 1;" transform="  matrix(1 0 0 1 0 0) "/>
	<rect x="40.81" y="45" rx="0" ry="0" width="9" height="5.77" style="stroke: none; stroke-width: 1; stroke-dasharray: none; stroke-linecap: butt; stroke-linejoin: miter; stroke-miterlimit: 10; fill: rgb(175,182,187); fill-rule: nonzero; opacity: 1;" transform=" matrix(1 0 0 1 0 0) "/>
	<path d="M 63.7 90 c -4.464 0 -8.687 -1.43 -12.22 -4.137 c -3.83 -2.935 -9.135 -2.953 -12.901 -0.047 C 35.036 88.554 30.791 90 26.302 90 c -5.628 0 -11.037 -2.382 -14.839 -6.535 c -3.855 -4.211 -5.701 -9.682 -5.196 -15.405 c 0.905 -10.257 9.895 -18.291 20.467 -18.291 h 36.965 c 5.578 0 10.765 2.23 14.604 6.281 c 3.836 4.048 5.782 9.354 5.482 14.943 C 83.225 81.426 74.256 89.952 63.793 90 C 63.762 90 63.73 90 63.7 90 z M 44.968 81.649 c 2.718 0 5.445 0.875 7.729 2.626 C 55.878 86.713 59.681 88 63.7 88 c 0.027 0 0.056 0 0.083 0 c 9.424 -0.043 17.5 -7.721 18.003 -17.114 c 0.271 -5.035 -1.481 -9.814 -4.937 -13.46 c -3.457 -3.648 -8.127 -5.657 -13.151 -5.657 H 26.733 c -9.544 0 -17.66 7.233 -18.475 16.467 c -0.455 5.158 1.207 10.087 4.679 13.879 C 16.362 85.854 21.233 88 26.302 88 c 4.042 0 7.865 -1.303 11.055 -3.766 C 39.589 82.511 42.273 81.649 44.968 81.649 z" style="stroke: none; stroke-width: 1; stroke-dasharray: none; stroke-linecap: butt; stroke-linejoin: miter; stroke-miterlimit: 10; fill: rgb(0,0,0); fill-rule: nonzero; opacity: 1;" transform=" matrix(1 0 0 1 0 0) " stroke-linecap="round" />
	<path d="M 30.803 81.197 H 24.21 c -0.552 0 -1 -0.447 -1 -1 v -6.017 h -6.016 c -0.552 0 -1 -0.447 -1 -1 v -6.593 c 0 -0.553 0.448 -1 1 -1 h 6.016 v -6.017 c 0 -0.553 0.448 -1 1 -1 h 6.593 c 0.552 0 1 0.447 1 1 v 6.017 h 6.016 c 0.552 0 1 0.447 1 1 v 6.593 c 0 0.553 -0.448 1 -1 1 h -6.016 v 6.017 C 31.803 80.75 31.355 81.197 30.803 81.197 z M 25.21 79.197 h 4.593 v -6.017 c 0 -0.553 0.448 -1 1 -1 h 6.016 v -4.593 h -6.016 c -0.552 0 -1 -0.447 -1 -1 v -6.017 H 25.21 v 6.017 c 0 0.553 -0.448 1 -1 1 h -6.016 v 4.593 h 6.016 c 0.552 0 1 0.447 1 1 V 79.197 z" style="stroke: none; stroke-width: 1; stroke-dasharray: none; stroke-linecap: butt; stroke-linejoin: miter; stroke-miterlimit: 10; fill: rgb(0,0,0); fill-rule: nonzero; opacity: 1;" transform=" matrix(1 0 0 1 0 0) " stroke-linecap="round" />
	<path d="M 49.813 51.769 h -9.001 c -0.552 0 -1 -0.447 -1 -1 V 45 c 0 -0.552 0.448 -1 1 -1 h 9.001 c 0.553 0 1 0.448 1 1 v 5.769 C 50.813 51.321 50.366 51.769 49.813 51.769 z M 41.812 49.769 h 7.001 V 46 h -7.001 V 49.769 z" style="stroke: none; stroke-width: 1; stroke-dasharray: none; stroke-linecap: butt; stroke-linejoin: miter; stroke-miterlimit: 10; fill: rgb(0,0,0); fill-rule: nonzero; opacity: 1;" transform=" matrix(1 0 0 1 0 0) " stroke-linecap="round" />
	<path d="M 61.644 81.197 c -2.36 0 -4.28 -1.92 -4.28 -4.28 s 1.92 -4.28 4.28 -4.28 c 2.359 0 4.279 1.92 4.279 4.28 S 64.003 81.197 61.644 81.197 z M 61.644 74.637 c -1.258 0 -2.28 1.022 -2.28 2.28 s 1.022 2.28 2.28 2.28 c 1.257 0 2.279 -1.022 2.279 -2.28 S 62.9 74.637 61.644 74.637 z" style="stroke: none; stroke-width: 1; stroke-dasharray: none; stroke-linecap: butt; stroke-linejoin: miter; stroke-miterlimit: 10; fill: rgb(0,0,0); fill-rule: nonzero; opacity: 1;" transform=" matrix(1 0 0 1 0 0) " stroke-linecap="round" />
	<path d="M 61.644 67.149 c -2.36 0 -4.28 -1.92 -4.28 -4.279 c 0 -2.36 1.92 -4.28 4.28 -4.28 c 2.359 0 4.279 1.92 4.279 4.28 C 65.923 65.229 64.003 67.149 61.644 67.149 z M 61.644 60.59 c -1.258 0 -2.28 1.022 -2.28 2.28 c 0 1.257 1.022 2.279 2.28 2.279 c 1.257 0 2.279 -1.022 2.279 -2.279 C 63.923 61.612 62.9 60.59 61.644 60.59 z" style="stroke: none; stroke-width: 1; stroke-dasharray: none; stroke-linecap: butt; stroke-linejoin: miter; stroke-miterlimit: 10; fill: rgb(0,0,0); fill-rule: nonzero; opacity: 1;" transform=" matrix(1 0 0 1 0 0) " stroke-linecap="round" />
	<path d="M 53.76 74.174 c -2.36 0 -4.28 -1.92 -4.28 -4.28 s 1.92 -4.28 4.28 -4.28 s 4.28 1.92 4.28 4.28 S 56.12 74.174 53.76 74.174 z M 53.76 67.613 c -1.258 0 -2.28 1.022 -2.28 2.28 s 1.022 2.28 2.28 2.28 s 2.28 -1.022 2.28 -2.28 S 55.018 67.613 53.76 67.613 z" style="stroke: none; stroke-width: 1; stroke-dasharray: none; stroke-linecap: butt; stroke-linejoin: miter; stroke-miterlimit: 10; fill: rgb(0,0,0); fill-rule: nonzero; opacity: 1;" transform=" matrix(1 0 0 1 0 0) " stroke-linecap="round" />
	<path d="M 69.526 74.174 c -2.36 0 -4.28 -1.92 -4.28 -4.28 s 1.92 -4.28 4.28 -4.28 s 4.28 1.92 4.28 4.28 S 71.887 74.174 69.526 74.174 z M 69.526 67.613 c -1.258 0 -2.28 1.022 -2.28 2.28 s 1.022 2.28 2.28 2.28 s 2.28 -1.022 2.28 -2.28 S 70.784 67.613 69.526 67.613 z" style="stroke: none; stroke-width: 1; stroke-dasharray: none; stroke-linecap: butt; stroke-linejoin: miter; stroke-miterlimit: 10; fill: rgb(0,0,0); fill-rule: nonzero; opacity: 1;" transform=" matrix(1 0 0 1 0 0) " stroke-linecap="round" />
</g>
</svg>