<svg xmlns="http://www.w3.org/2000/svg" xmlns:xlink="http://www.w3.org/1999/xlink" version="1.1" width="30" height="30" viewBox="0 0 256 256" xml:space="preserve">

<defs>
</defs>
<g style="stroke: none; stroke-width: 0; stroke-dasharray: none; stroke-linecap: butt; stroke-linejoin: miter; stroke-miterlimit: 10; fill: none; fill-rule: nonzero; opacity: 1;" transform="translate(1.4065934065934016 1.4065934065934016) scale(2.81 2.81)" >
	<path d="M 82.34 36.247 c -3.438 -5.894 -10.227 -8.968 -16.924 -7.664 l -12.918 2.515 c -2.476 0.482 -4.987 0.723 -7.498 0.723 s -5.022 -0.241 -7.498 -0.723 l -12.918 -2.515 c -6.697 -1.304 -13.487 1.77 -16.924 7.664 c -9.414 16.14 -11.362 49.12 1.076 49.12 c 5.482 0 9.372 -1.357 13.988 -5.712 c 7.119 -6.768 12.99 -9.471 22.276 -9.937 c 9.286 0.466 15.157 3.168 22.276 9.937 c 4.617 4.355 8.507 5.712 13.988 5.712 C 93.702 85.367 91.754 52.387 82.34 36.247 z M 36.854 51.707 c 0 2.239 -1.815 4.054 -4.054 4.054 h -2.061 c -1.167 0 -2.114 0.946 -2.114 2.114 l 0 1.887 c 0 2.118 -1.548 4.009 -3.656 4.21 c -2.418 0.231 -4.453 -1.665 -4.453 -4.035 v -2.061 c 0 -1.167 -0.946 -2.114 -2.114 -2.114 H 16.34 c -2.239 0 -4.054 -1.815 -4.054 -4.054 v 0 c 0 -2.239 1.815 -4.054 4.054 -4.054 h 2.061 c 1.167 0 2.114 -0.946 2.114 -2.114 l 0 -1.887 c 0 -2.118 1.548 -4.009 3.656 -4.21 c 2.418 -0.231 4.453 1.665 4.453 4.035 v 2.061 c 0 1.167 0.946 2.114 2.114 2.114 h 2.061 C 35.039 47.653 36.854 49.468 36.854 51.707 L 36.854 51.707 z M 57.021 55.582 c -2.14 0 -3.875 -1.735 -3.875 -3.875 s 1.735 -3.875 3.875 -3.875 s 3.875 1.735 3.875 3.875 S 59.161 55.582 57.021 55.582 z M 65.43 63.991 c -2.14 0 -3.875 -1.735 -3.875 -3.875 c 0 -2.14 1.735 -3.875 3.875 -3.875 c 2.14 0 3.875 1.735 3.875 3.875 C 69.305 62.257 67.57 63.991 65.43 63.991 z M 65.43 47.172 c -2.14 0 -3.875 -1.735 -3.875 -3.875 c 0 -2.14 1.735 -3.875 3.875 -3.875 c 2.14 0 3.875 1.735 3.875 3.875 C 69.305 45.438 67.57 47.172 65.43 47.172 z M 73.84 55.582 c -2.14 0 -3.875 -1.735 -3.875 -3.875 c 0 -2.14 1.735 -3.875 3.875 -3.875 s 3.875 1.735 3.875 3.875 C 77.715 53.847 75.98 55.582 73.84 55.582 z" style="stroke: none; stroke-width: 1; stroke-dasharray: none; stroke-linecap: butt; stroke-linejoin: miter; stroke-miterlimit: 10; fill: rgb(0,17,178); fill-rule: nonzero; opacity: 1;" transform=" matrix(1 0 0 1 0 0) " stroke-linecap="round" />
	<path d="M 36.683 23.222 c -5.009 0 -11.498 -0.504 -17.256 -4.436 c -1.14 -0.778 -1.434 -2.334 -0.655 -3.474 c 0.779 -1.139 2.334 -1.434 3.474 -0.655 c 3.66 2.499 7.977 3.564 14.437 3.564 c 1.381 0 2.5 1.119 2.5 2.5 S 38.064 23.222 36.683 23.222 z" style="stroke: none; stroke-width: 1; stroke-dasharray: none; stroke-linecap: butt; stroke-linejoin: miter; stroke-miterlimit: 10; fill: rgb(0,17,178); fill-rule: nonzero; opacity: 1;" transform=" matrix(1 0 0 1 0 0) " stroke-linecap="round" />
	<path d="M 47.5 28.722 V 13.927 c 0 -2.368 1.926 -4.294 4.294 -4.294 s 4.294 1.926 4.294 4.294 c 0 2.031 -1.44 3.801 -3.426 4.207 c -1.353 0.277 -2.226 1.598 -1.948 2.951 c 0.242 1.184 1.284 1.999 2.446 1.999 c 0.166 0 0.335 -0.017 0.504 -0.051 c 4.302 -0.88 7.424 -4.71 7.424 -9.105 c 0 -5.125 -4.169 -9.294 -9.294 -9.294 S 42.5 8.803 42.5 13.927 v 14.795 C 44.164 28.837 45.836 28.837 47.5 28.722 z" style="stroke: none; stroke-width: 1; stroke-dasharray: none; stroke-linecap: butt; stroke-linejoin: miter; stroke-miterlimit: 10; fill: rgb(0,17,178); fill-rule: nonzero; opacity: 1;" transform=" matrix(1 0 0 1 0 0) " stroke-linecap="round" />
</g>
</svg>