<svg xmlns="http://www.w3.org/2000/svg" xmlns:xlink="http://www.w3.org/1999/xlink" version="1.1" width="30" height="30" viewBox="-10 -10 300 300" xml:space="preserve">

<defs>
</defs>
<g style="stroke: none; stroke-width: 0; stroke-dasharray: none; stroke-linecap: butt; stroke-linejoin: miter; stroke-miterlimit: 10; fill: none; fill-rule: nonzero; opacity: 1;" transform="translate(1.4065934065934016 1.4065934065934016) scale(2.81 2.81)" >
	<rect x="45" y="1" rx="0" ry="0" width="29.13" height="40.54" style="stroke: none; stroke-width: 1; stroke-dasharray: none; stroke-linecap: butt; stroke-linejoin: miter; stroke-miterlimit: 10; fill: rgb(164,249,255); fill-rule: nonzero; opacity: 1;" transform=" matrix(1 0 0 1 0 0) "/>
	<rect x="45" y="1" rx="0" ry="0" width="29.13" height="40.54" style="stroke: none; stroke-width: 1; stroke-dasharray: none; stroke-linecap: butt; stroke-linejoin: miter; stroke-miterlimit: 10; fill: none; fill-rule: nonzero; opacity: 1;" transform=" matrix(1 0 0 1 0 0) "/>
	<rect x="15.87" y="41.54" rx="0" ry="0" width="29.13" height="40.54" style="stroke: none; stroke-width: 1; stroke-dasharray: none; stroke-linecap: butt; stroke-linejoin: miter; stroke-miterlimit: 10; fill: rgb(164,249,255); fill-rule: nonzero; opacity: 1;" transform=" matrix(1 0 0 1 0 0) "/>
	<rect x="15.87" y="41.54" rx="0" ry="0" width="29.13" height="40.54" style="stroke: none; stroke-width: 1; stroke-dasharray: none; stroke-linecap: butt; stroke-linejoin: miter; stroke-miterlimit: 10; fill: none; fill-rule: nonzero; opacity: 1;" transform=" matrix(1 0 0 1 0 0) "/>
	<rect x="15.87" y="1" rx="0" ry="0" width="29.13" height="40.54" style="stroke: none; stroke-width: 1; stroke-dasharray: none; stroke-linecap: butt; stroke-linejoin: miter; stroke-miterlimit: 10; fill: rgb(164,249,255); fill-rule: nonzero; opacity: 1;" transform=" matrix(1 0 0 1 0 0) "/>
	<rect x="15.87" y="1" rx="0" ry="0" width="29.13" height="40.54" style="stroke: none; stroke-width: 1; stroke-dasharray: none; stroke-linecap: butt; stroke-linejoin: miter; stroke-miterlimit: 10; fill: none; fill-rule: nonzero; opacity: 1;" transform=" matrix(1 0 0 1 0 0) "/>
	<rect x="45" y="41.54" rx="0" ry="0" width="29.13" height="40.54" style="stroke: none; stroke-width: 1; stroke-dasharray: none; stroke-linecap: butt; stroke-linejoin: miter; stroke-miterlimit: 10; fill: rgb(164,249,255); fill-rule: nonzero; opacity: 1;" transform=" matrix(1 0 0 1 0 0) "/>
	<rect x="45" y="41.54" rx="0" ry="0" width="29.13" height="40.54" style="stroke: none; stroke-width: 1; stroke-dasharray: none; stroke-linecap: butt; stroke-linejoin: miter; stroke-miterlimit: 10; fill: none; fill-rule: nonzero; opacity: 1;" transform=" matrix(1 0 0 1 0 0) "/>
	<rect x="10.54" y="82.09" rx="0" ry="0" width="68.93" height="6.91" style="stroke: none; stroke-width: 1; stroke-dasharray: none; stroke-linecap: butt; stroke-linejoin: miter; stroke-miterlimit: 10; fill: rgb(240,240,240); fill-rule: nonzero; opacity: 1;" transform=" matrix(1 0 0 1 0 0) "/>
	<rect x="45" y="1" rx="0" ry="0" width="29.13" height="40.54" style="stroke: none; stroke-width: 1; stroke-dasharray: none; stroke-linecap: butt; stroke-linejoin: miter; stroke-miterlimit: 10; fill: none; fill-rule: nonzero; opacity: 1;" transform=" matrix(1 0 0 1 0 0) "/>
	<path d="M 74.132 42.544 H 45 c -0.552 0 -1 -0.448 -1 -1 V 1 c 0 -0.552 0.448 -1 1 -1 h 29.132 c 0.553 0 1 0.448 1 1 v 40.544 C 75.132 42.096 74.685 42.544 74.132 42.544 z M 46 40.544 h 27.132 V 2 H 46 V 40.544 z" style="stroke: none; stroke-width: 1; stroke-dasharray: none; stroke-linecap: butt; stroke-linejoin: miter; stroke-miterlimit: 10; fill: rgb(0,0,0); fill-rule: nonzero; opacity: 1;" transform=" matrix(1 0 0 1 0 0) " stroke-linecap="round" />
	<rect x="15.87" y="41.54" rx="0" ry="0" width="29.13" height="40.54" style="stroke: none; stroke-width: 1; stroke-dasharray: none; stroke-linecap: butt; stroke-linejoin: miter; stroke-miterlimit: 10; fill: none; fill-rule: nonzero; opacity: 1;" transform=" matrix(1 0 0 1 0 0) "/>
	<path d="M 45 83.088 H 15.868 c -0.552 0 -1 -0.447 -1 -1 V 41.544 c 0 -0.552 0.448 -1 1 -1 H 45 c 0.552 0 1 0.448 1 1 s -0.448 1 -1 1 H 16.868 v 38.544 H 45 c 0.552 0 1 0.447 1 1 S 45.552 83.088 45 83.088 z" style="stroke: none; stroke-width: 1; stroke-dasharray: none; stroke-linecap: butt; stroke-linejoin: miter; stroke-miterlimit: 10; fill: rgb(0,0,0); fill-rule: nonzero; opacity: 1;" transform=" matrix(1 0 0 1 0 0) " stroke-linecap="round" />
	<rect x="15.87" y="1" rx="0" ry="0" width="29.13" height="40.54" style="stroke: none; stroke-width: 1; stroke-dasharray: none; stroke-linecap: butt; stroke-linejoin: miter; stroke-miterlimit: 10; fill: none; fill-rule: nonzero; opacity: 1;" transform=" matrix(1 0 0 1 0 0) "/>
	<path d="M 45 42.544 H 15.868 c -0.552 0 -1 -0.448 -1 -1 V 1 c 0 -0.552 0.448 -1 1 -1 H 45 c 0.552 0 1 0.448 1 1 v 40.544 C 46 42.096 45.552 42.544 45 42.544 z M 16.868 40.544 H 44 V 2 H 16.868 V 40.544 z" style="stroke: none; stroke-width: 1; stroke-dasharray: none; stroke-linecap: butt; stroke-linejoin: miter; stroke-miterlimit: 10; fill: rgb(0,0,0); fill-rule: nonzero; opacity: 1;" transform=" matrix(1 0 0 1 0 0) " stroke-linecap="round" />
	<path d="M 21.537 9.42 c -0.223 0 -0.447 -0.074 -0.633 -0.226 c -0.427 -0.35 -0.49 -0.979 -0.141 -1.407 l 1.682 -2.056 c 0.351 -0.428 0.979 -0.491 1.407 -0.141 c 0.427 0.35 0.49 0.979 0.141 1.407 l -1.682 2.056 C 22.113 9.295 21.826 9.42 21.537 9.42 z" style="stroke: none; stroke-width: 1; stroke-dasharray: none; stroke-linecap: butt; stroke-linejoin: miter; stroke-miterlimit: 10; fill: rgb(0,0,0); fill-rule: nonzero; opacity: 1;" transform=" matrix(1 0 0 1 0 0) " stroke-linecap="round" />
	<path d="M 21.537 17.669 c -0.223 0 -0.447 -0.074 -0.633 -0.226 c -0.427 -0.35 -0.49 -0.979 -0.141 -1.407 L 29.192 5.73 c 0.35 -0.428 0.98 -0.491 1.407 -0.141 c 0.427 0.35 0.49 0.979 0.141 1.407 l -8.429 10.306 C 22.113 17.544 21.826 17.669 21.537 17.669 z" style="stroke: none; stroke-width: 1; stroke-dasharray: none; stroke-linecap: butt; stroke-linejoin: miter; stroke-miterlimit: 10; fill: rgb(0,0,0); fill-rule: nonzero; opacity: 1;" transform=" matrix(1 0 0 1 0 0) " stroke-linecap="round" />
	<polyline points="74.13,82.09 74.13,41.54 45,41.54 " style="stroke: none; stroke-width: 1; stroke-dasharray: none; stroke-linecap: butt; stroke-linejoin: miter; stroke-miterlimit: 10; fill: none; fill-rule: nonzero; opacity: 1;" transform="  matrix(1 0 0 1 0 0) "/>
	<path d="M 74.132 83.088 h -7.163 c -0.553 0 -1 -0.447 -1 -1 s 0.447 -1 1 -1 h 6.163 V 42.544 H 46 v 14.65 c 0 0.553 -0.448 1 -1 1 s -1 -0.447 -1 -1 v -15.65 c 0 -0.552 0.448 -1 1 -1 h 29.132 c 0.553 0 1 0.448 1 1 v 40.544 C 75.132 82.641 74.685 83.088 74.132 83.088 z" style="stroke: none; stroke-width: 1; stroke-dasharray: none; stroke-linecap: butt; stroke-linejoin: miter; stroke-miterlimit: 10; fill: rgb(0,0,0); fill-rule: nonzero; opacity: 1;" transform=" matrix(1 0 0 1 0 0) " stroke-linecap="round" />
	<path d="M 79.465 90 h -68.93 c -0.552 0 -1 -0.447 -1 -1 v -6.912 c 0 -0.553 0.448 -1 1 -1 H 45.57 c 0.552 0 1 0.447 1 1 s -0.447 1 -1 1 H 11.535 V 88 h 66.93 v -4.912 H 63.011 c -0.553 0 -1 -0.447 -1 -1 s 0.447 -1 1 -1 h 16.454 c 0.553 0 1 0.447 1 1 V 89 C 80.465 89.553 80.018 90 79.465 90 z" style="stroke: none; stroke-width: 1; stroke-dasharray: none; stroke-linecap: butt; stroke-linejoin: miter; stroke-miterlimit: 10; fill: rgb(0,0,0); fill-rule: nonzero; opacity: 1;" transform=" matrix(1 0 0 1 0 0) " stroke-linecap="round" />
	<polygon points="61.74,88.62 46.84,88.62 43.14,69.58 65.44,69.58 " style="stroke: none; stroke-width: 1; stroke-dasharray: none; stroke-linecap: butt; stroke-linejoin: miter; stroke-miterlimit: 10; fill: rgb(235,150,109); fill-rule: nonzero; opacity: 1;" transform="  matrix(1 0 0 1 0 0) "/>
	<path d="M 61.744 89.621 H 46.837 c -0.479 0 -0.891 -0.34 -0.982 -0.81 l -3.693 -19.04 c -0.057 -0.293 0.021 -0.597 0.21 -0.827 c 0.19 -0.229 0.473 -0.363 0.771 -0.363 h 22.292 c 0.299 0 0.581 0.134 0.771 0.363 c 0.19 0.23 0.267 0.534 0.21 0.827 l -3.692 19.04 C 62.635 89.281 62.223 89.621 61.744 89.621 z M 47.661 87.621 H 60.92 l 3.304 -17.04 H 44.356 L 47.661 87.621 z" style="stroke: none; stroke-width: 1; stroke-dasharray: none; stroke-linecap: butt; stroke-linejoin: miter; stroke-miterlimit: 10; fill: rgb(0,0,0); fill-rule: nonzero; opacity: 1;" transform=" matrix(1 0 0 1 0 0) " stroke-linecap="round" />
	<path d="M 64.346 76.208 h -20.11 c -0.552 0 -1 -0.447 -1 -1 s 0.448 -1 1 -1 h 20.11 c 0.553 0 1 0.447 1 1 S 64.898 76.208 64.346 76.208 z" style="stroke: none; stroke-width: 1; stroke-dasharray: none; stroke-linecap: butt; stroke-linejoin: miter; stroke-miterlimit: 10; fill: rgb(0,0,0); fill-rule: nonzero; opacity: 1;" transform=" matrix(1 0 0 1 0 0) " stroke-linecap="round" />
	<path d="M 57.699 63.462 c 1.186 1.618 3.459 1.969 5.077 0.784 c 2.653 -1.943 1.577 -4.153 4.511 -6.041 c -3.104 -0.964 -6.152 -1.763 -8.804 0.179 C 56.864 59.571 56.513 61.844 57.699 63.462 z" style="stroke: none; stroke-width: 1; stroke-dasharray: none; stroke-linecap: butt; stroke-linejoin: miter; stroke-miterlimit: 10; fill: rgb(148,210,41); fill-rule: nonzero; opacity: 1;" transform=" matrix(1 0 0 1 0 0) " stroke-linecap="round" />
	<path d="M 60.635 65.946 c -1.427 0 -2.836 -0.655 -3.742 -1.893 l 0 0 c -1.51 -2.062 -1.061 -4.966 1 -6.475 c 3.197 -2.344 6.95 -1.18 9.691 -0.328 c 0.371 0.115 0.642 0.436 0.694 0.82 c 0.052 0.385 -0.123 0.766 -0.45 0.976 c -1.26 0.811 -1.599 1.627 -2.027 2.66 c -0.437 1.053 -0.933 2.246 -2.434 3.346 C 62.544 65.656 61.585 65.946 60.635 65.946 z M 58.506 62.872 c 0.857 1.169 2.509 1.426 3.68 0.567 c 1.05 -0.77 1.383 -1.571 1.769 -2.499 c 0.301 -0.727 0.628 -1.514 1.289 -2.288 c -2.361 -0.619 -4.384 -0.767 -6.169 0.54 C 57.903 60.05 57.648 61.7 58.506 62.872 L 58.506 62.872 z" style="stroke: none; stroke-width: 1; stroke-dasharray: none; stroke-linecap: butt; stroke-linejoin: miter; stroke-miterlimit: 10; fill: rgb(0,0,0); fill-rule: nonzero; opacity: 1;" transform=" matrix(1 0 0 1 0 0) " stroke-linecap="round" />
	<path d="M 54.002 67.874 c -0.089 0 -0.18 -0.012 -0.27 -0.037 c -0.532 -0.148 -0.843 -0.699 -0.694 -1.231 c 0.435 -1.561 2.385 -3.883 4.154 -4.425 c 0.529 -0.165 1.087 0.135 1.249 0.663 c 0.162 0.527 -0.135 1.087 -0.663 1.249 c -1.144 0.351 -2.563 2.149 -2.814 3.05 C 54.841 67.585 54.439 67.874 54.002 67.874 z" style="stroke: none; stroke-width: 1; stroke-dasharray: none; stroke-linecap: butt; stroke-linejoin: miter; stroke-miterlimit: 10; fill: rgb(0,0,0); fill-rule: nonzero; opacity: 1;" transform=" matrix(1 0 0 1 0 0) " stroke-linecap="round" />
	<path d="M 50.303 63.462 c -1.186 1.618 -3.459 1.969 -5.077 0.784 c -2.653 -1.943 -1.577 -4.153 -4.511 -6.041 c 3.104 -0.964 6.152 -1.763 8.804 0.179 C 51.138 59.571 51.489 61.844 50.303 63.462 z" style="stroke: none; stroke-width: 1; stroke-dasharray: none; stroke-linecap: butt; stroke-linejoin: miter; stroke-miterlimit: 10; fill: rgb(148,210,41); fill-rule: nonzero; opacity: 1;" transform=" matrix(1 0 0 1 0 0) " stroke-linecap="round" />
	<path d="M 47.367 65.946 c -0.95 0 -1.908 -0.29 -2.732 -0.894 c -1.501 -1.1 -1.997 -2.293 -2.434 -3.346 c -0.429 -1.033 -0.768 -1.85 -2.027 -2.66 c -0.327 -0.21 -0.502 -0.591 -0.45 -0.976 c 0.052 -0.385 0.323 -0.705 0.694 -0.82 c 2.74 -0.852 6.493 -2.017 9.691 0.328 c 2.061 1.51 2.509 4.414 1 6.475 l 0 0 C 50.204 65.291 48.795 65.946 47.367 65.946 z M 42.759 58.652 c 0.662 0.774 0.989 1.562 1.29 2.288 c 0.385 0.928 0.718 1.729 1.768 2.499 c 1.171 0.858 2.822 0.604 3.68 -0.567 l 0 0 c 0.857 -1.171 0.603 -2.822 -0.568 -3.68 C 47.141 57.883 45.121 58.033 42.759 58.652 z M 50.304 63.463 h 0.01 H 50.304 z" style="stroke: none; stroke-width: 1; stroke-dasharray: none; stroke-linecap: butt; stroke-linejoin: miter; stroke-miterlimit: 10; fill: rgb(0,0,0); fill-rule: nonzero; opacity: 1;" transform=" matrix(1 0 0 1 0 0) " stroke-linecap="round" />
	<path d="M 54 67.874 c -0.438 0 -0.84 -0.29 -0.963 -0.732 c -0.25 -0.9 -1.669 -2.698 -2.813 -3.049 c -0.528 -0.162 -0.825 -0.722 -0.663 -1.249 s 0.721 -0.826 1.249 -0.663 c 1.771 0.543 3.721 2.865 4.155 4.426 c 0.147 0.532 -0.164 1.083 -0.696 1.231 C 54.18 67.862 54.089 67.874 54 67.874 z" style="stroke: none; stroke-width: 1; stroke-dasharray: none; stroke-linecap: butt; stroke-linejoin: miter; stroke-miterlimit: 10; fill: rgb(0,0,0); fill-rule: nonzero; opacity: 1;" transform=" matrix(1 0 0 1 0 0) " stroke-linecap="round" />
	<path d="M 54.001 70.581 c -0.553 0 -1 -0.447 -1 -1 v -13.3 c 0 -0.553 0.447 -1 1 -1 s 1 0.447 1 1 v 13.3 C 55.001 70.134 54.554 70.581 54.001 70.581 z" style="stroke: none; stroke-width: 1; stroke-dasharray: none; stroke-linecap: butt; stroke-linejoin: miter; stroke-miterlimit: 10; fill: rgb(0,0,0); fill-rule: nonzero; opacity: 1;" transform=" matrix(1 0 0 1 0 0) " stroke-linecap="round" />
	<path d="M 54.001 56.281 c 1.634 0 2.959 -1.325 2.959 -2.959 c 0 -2.678 -1.97 -3.035 -1.798 -5.872 c -2.127 1.575 -4.12 3.194 -4.12 5.872 C 51.042 54.956 52.367 56.281 54.001 56.281 z" style="stroke: none; stroke-width: 1; stroke-dasharray: none; stroke-linecap: butt; stroke-linejoin: miter; stroke-miterlimit: 10; fill: rgb(148,210,41); fill-rule: nonzero; opacity: 1;" transform=" matrix(1 0 0 1 0 0) " stroke-linecap="round" />
	<path d="M 54.001 57.281 c -2.183 0 -3.959 -1.776 -3.959 -3.959 c 0 -3.324 2.615 -5.261 4.525 -6.676 c 0.312 -0.23 0.729 -0.261 1.071 -0.075 s 0.545 0.552 0.521 0.939 c -0.07 1.161 0.29 1.754 0.745 2.506 c 0.47 0.774 1.055 1.738 1.055 3.306 C 57.96 55.505 56.184 57.281 54.001 57.281 z M 54.369 49.333 c -1.385 1.164 -2.327 2.348 -2.327 3.989 c 0 1.08 0.879 1.959 1.959 1.959 s 1.959 -0.879 1.959 -1.959 c 0 -1.008 -0.337 -1.564 -0.765 -2.269 C 54.907 50.579 54.58 50.038 54.369 49.333 z" style="stroke: none; stroke-width: 1; stroke-dasharray: none; stroke-linecap: butt; stroke-linejoin: miter; stroke-miterlimit: 10; fill: rgb(0,0,0); fill-rule: nonzero; opacity: 1;" transform=" matrix(1 0 0 1 0 0) " stroke-linecap="round" />
	<path d="M 45.226 70.581 c -0.552 0 -1 -0.447 -1 -1 v -5.335 c 0 -0.553 0.448 -1 1 -1 s 1 0.447 1 1 v 5.335 C 46.227 70.134 45.778 70.581 45.226 70.581 z" style="stroke: none; stroke-width: 1; stroke-dasharray: none; stroke-linecap: butt; stroke-linejoin: miter; stroke-miterlimit: 10; fill: rgb(0,0,0); fill-rule: nonzero; opacity: 1;" transform=" matrix(1 0 0 1 0 0) " stroke-linecap="round" />
</g>
</svg>