<svg xmlns="http://www.w3.org/2000/svg" xmlns:xlink="http://www.w3.org/1999/xlink" version="1.1" width="30" height="30" viewBox="0 0 256 256" xml:space="preserve">

<defs>
</defs>
<g style="stroke: none; stroke-width: 0; stroke-dasharray: none; stroke-linecap: butt; stroke-linejoin: miter; stroke-miterlimit: 10; fill: none; fill-rule: nonzero; opacity: 1;" transform="translate(1.4065934065934016 1.4065934065934016) scale(2.81 2.81)" >
	<circle cx="34.327" cy="22.537000000000003" r="21.617" style="stroke: none; stroke-width: 1; stroke-dasharray: none; stroke-linecap: butt; stroke-linejoin: miter; stroke-miterlimit: 10; fill: rgb(255,208,100); fill-rule: nonzero; opacity: 1;" transform="  matrix(1 0 0 1 0 0) "/>
	<circle cx="25.705" cy="63.875" r="25.205" style="stroke: none; stroke-width: 1; stroke-dasharray: none; stroke-linecap: butt; stroke-linejoin: miter; stroke-miterlimit: 10; fill: rgb(255,224,125); fill-rule: nonzero; opacity: 1;" transform="  matrix(1 0 0 1 0 0) "/>
	<path d="M 25.705 89.579 C 11.531 89.579 0 78.048 0 63.874 s 11.531 -25.705 25.705 -25.705 c 1.559 0 3.12 0.141 4.641 0.418 c 0.271 0.049 0.452 0.31 0.402 0.582 c -0.049 0.271 -0.31 0.456 -0.582 0.402 c -1.462 -0.266 -2.963 -0.401 -4.461 -0.401 C 12.083 39.169 1 50.252 1 63.874 s 11.083 24.705 24.705 24.705 s 24.705 -11.083 24.705 -24.705 c 0 -4.389 -1.165 -8.698 -3.369 -12.462 c -0.14 -0.238 -0.06 -0.545 0.179 -0.685 c 0.239 -0.137 0.545 -0.059 0.685 0.179 c 2.294 3.917 3.506 8.401 3.506 12.968 C 51.409 78.048 39.878 89.579 25.705 89.579 z" style="stroke: none; stroke-width: 1; stroke-dasharray: none; stroke-linecap: butt; stroke-linejoin: miter; stroke-miterlimit: 10; fill: rgb(18,34,46); fill-rule: nonzero; opacity: 1;" transform=" matrix(1 0 0 1 0 0) " stroke-linecap="round" />
	<path d="M 60.43 46.871 l 9.069 39.852 c 0.371 1.63 1.993 2.651 3.623 2.28 l 4.619 -1.051 c 1.63 -0.371 2.651 -1.993 2.28 -3.623 l -9.069 -39.852 L 60.43 46.871 z" style="stroke: none; stroke-width: 1; stroke-dasharray: none; stroke-linecap: butt; stroke-linejoin: miter; stroke-miterlimit: 10; fill: rgb(226,125,71); fill-rule: nonzero; opacity: 1;" transform=" matrix(1 0 0 1 0 0) " stroke-linecap="round" />
	<path d="M 65.95 22.497 l -0.789 -3.468 c -0.371 -1.63 -1.993 -2.651 -3.623 -2.28 L 56.919 17.8 c -1.63 0.371 -2.651 1.993 -2.28 3.623 l 0.789 3.468 L 65.95 22.497 z" style="stroke: none; stroke-width: 1; stroke-dasharray: none; stroke-linecap: butt; stroke-linejoin: miter; stroke-miterlimit: 10; fill: rgb(226,125,71); fill-rule: nonzero; opacity: 1;" transform=" matrix(1 0 0 1 0 0) " stroke-linecap="round" />
	<path d="M 68.997 25.161 l -0.29 -1.273 c -0.241 -1.06 -1.296 -1.723 -2.355 -1.482 l -11.324 2.577 c -1.06 0.241 -1.723 1.296 -1.482 2.355 l 0.29 1.273 c -8.191 3.864 -13.736 10.447 -14.451 17.276 l 17.477 -3.977 l 0.796 3.499 c 0.25 1.099 1.343 1.786 2.442 1.536 l 11.184 -2.545 c 1.099 -0.25 1.786 -1.343 1.536 -2.442 l -0.796 -3.499 L 89.5 34.483 C 85.901 28.636 78.053 25.1 68.997 25.161 z" style="stroke: none; stroke-width: 1; stroke-dasharray: none; stroke-linecap: butt; stroke-linejoin: miter; stroke-miterlimit: 10; fill: rgb(62,108,144); fill-rule: nonzero; opacity: 1;" transform=" matrix(1 0 0 1 0 0) " stroke-linecap="round" />
	<path d="M 89.926 34.221 c -3.615 -5.872 -11.457 -9.515 -20.53 -9.56 l -0.201 -0.884 c -0.295 -1.298 -1.574 -2.116 -2.865 -1.869 l -0.68 -2.989 c -0.433 -1.896 -2.325 -3.092 -4.222 -2.656 l -4.619 1.051 c -0.918 0.209 -1.7 0.763 -2.202 1.561 c -0.501 0.797 -0.662 1.742 -0.453 2.661 l 0.68 2.989 c -1.276 0.339 -2.07 1.628 -1.774 2.925 l 0.201 0.884 c -8.161 3.966 -13.654 10.644 -14.372 17.502 c -0.017 0.161 0.044 0.319 0.165 0.427 c 0.121 0.105 0.286 0.146 0.443 0.113 l 16.989 -3.866 l 0.686 3.012 c 0.268 1.177 1.317 1.977 2.477 1.977 c 0.133 0 0.268 -0.024 0.403 -0.045 l 8.962 39.382 c 0.209 0.918 0.763 1.7 1.561 2.202 c 0.569 0.358 1.215 0.544 1.871 0.544 c 0.263 0 0.527 -0.03 0.79 -0.09 l 4.618 -1.052 c 0.919 -0.208 1.701 -0.763 2.203 -1.56 c 0.501 -0.798 0.662 -1.743 0.453 -2.662 l -8.961 -39.379 c 1.273 -0.376 2.058 -1.677 1.76 -2.989 l -0.686 -3.012 l 16.99 -3.866 c 0.157 -0.036 0.287 -0.145 0.35 -0.293 C 90.023 34.528 90.011 34.358 89.926 34.221 z M 55.452 19.406 c 0.359 -0.571 0.92 -0.969 1.578 -1.119 l 4.619 -1.051 c 0.188 -0.043 0.375 -0.063 0.561 -0.063 c 1.152 0 2.197 0.796 2.464 1.966 l 0.678 2.981 l -9.546 2.172 l -0.679 -2.98 C 54.978 20.654 55.093 19.977 55.452 19.406 z M 79.208 86.346 c -0.359 0.571 -0.92 0.969 -1.578 1.118 l -4.619 1.052 c -0.655 0.15 -1.334 0.035 -1.906 -0.325 c -0.571 -0.36 -0.968 -0.921 -1.118 -1.579 l -8.957 -39.363 l 9.546 -2.173 l 8.958 39.364 C 79.683 85.098 79.567 85.774 79.208 86.346 z M 71.911 37.973 c -0.129 0.029 -0.241 0.109 -0.312 0.221 c -0.071 0.112 -0.094 0.248 -0.064 0.377 l 0.797 3.5 c 0.188 0.827 -0.331 1.653 -1.157 1.843 l -11.19 2.546 c -0.823 0.178 -1.651 -0.333 -1.84 -1.161 l -0.796 -3.5 c -0.029 -0.129 -0.108 -0.242 -0.221 -0.313 c -0.081 -0.05 -0.173 -0.077 -0.267 -0.077 c -0.037 0 -0.074 0.004 -0.111 0.013 l -16.778 3.818 c 0.987 -6.368 6.314 -12.516 14.076 -16.177 c 0.213 -0.1 0.327 -0.334 0.274 -0.563 l -0.29 -1.273 c -0.087 -0.382 -0.02 -0.775 0.189 -1.107 c 0.209 -0.332 0.534 -0.562 0.916 -0.649 l 11.326 -2.577 c 0.792 -0.176 1.577 0.317 1.757 1.105 l 0.29 1.273 c 0.052 0.228 0.254 0.389 0.487 0.389 c 0.091 0.029 0.153 0 0.229 -0.001 c 8.487 0 15.85 3.227 19.464 8.494 L 71.911 37.973 z" style="stroke: none; stroke-width: 1; stroke-dasharray: none; stroke-linecap: butt; stroke-linejoin: miter; stroke-miterlimit: 10; fill: rgb(18,34,46); fill-rule: nonzero; opacity: 1;" transform=" matrix(1 0 0 1 0 0) " stroke-linecap="round" />
	<path d="M 16.198 34.832 c -0.164 0 -0.324 -0.08 -0.419 -0.227 c -2.337 -3.588 -3.572 -7.758 -3.572 -12.059 c 0 -12.2 9.925 -22.125 22.125 -22.125 c 8.629 0 16.528 5.071 20.124 12.919 c 0.115 0.251 0.005 0.548 -0.246 0.663 c -0.249 0.113 -0.547 0.004 -0.662 -0.246 C 50.113 6.264 42.571 1.421 34.331 1.421 c -11.648 0 -21.125 9.477 -21.125 21.125 c 0 4.106 1.179 8.087 3.41 11.513 c 0.151 0.231 0.085 0.541 -0.146 0.692 C 16.386 34.805 16.292 34.832 16.198 34.832 z" style="stroke: none; stroke-width: 1; stroke-dasharray: none; stroke-linecap: butt; stroke-linejoin: miter; stroke-miterlimit: 10; fill: rgb(18,34,46); fill-rule: nonzero; opacity: 1;" transform=" matrix(1 0 0 1 0 0) " stroke-linecap="round" />
	<path d="M 29.278 64.374 h -6.612 c -2.113 0 -3.833 -1.719 -3.833 -3.832 v -5.13 c 0 -2.113 1.719 -3.832 3.833 -3.832 h 6.612 c 2.113 0 3.832 1.719 3.832 3.832 c 0 0.276 -0.224 0.5 -0.5 0.5 s -0.5 -0.224 -0.5 -0.5 c 0 -1.562 -1.271 -2.832 -2.832 -2.832 h -6.612 c -1.562 0 -2.833 1.271 -2.833 2.832 v 5.13 c 0 1.562 1.271 2.832 2.833 2.832 h 6.612 c 0.276 0 0.5 0.224 0.5 0.5 S 29.554 64.374 29.278 64.374 z" style="stroke: none; stroke-width: 1; stroke-dasharray: none; stroke-linecap: butt; stroke-linejoin: miter; stroke-miterlimit: 10; fill: rgb(18,34,46); fill-rule: nonzero; opacity: 1;" transform=" matrix(1 0 0 1 0 0) " stroke-linecap="round" />
	<path d="M 29.278 76.169 h -6.612 c -2.113 0 -3.833 -1.72 -3.833 -3.833 c 0 -0.276 0.224 -0.5 0.5 -0.5 s 0.5 0.224 0.5 0.5 c 0 1.563 1.271 2.833 2.833 2.833 h 6.612 c 1.562 0 2.832 -1.271 2.832 -2.833 v -5.13 c 0 -1.562 -1.271 -2.832 -2.832 -2.832 h -6.612 c -0.276 0 -0.5 -0.224 -0.5 -0.5 s 0.224 -0.5 0.5 -0.5 h 6.612 c 2.113 0 3.832 1.719 3.832 3.832 v 5.13 C 33.11 74.449 31.391 76.169 29.278 76.169 z" style="stroke: none; stroke-width: 1; stroke-dasharray: none; stroke-linecap: butt; stroke-linejoin: miter; stroke-miterlimit: 10; fill: rgb(18,34,46); fill-rule: nonzero; opacity: 1;" transform=" matrix(1 0 0 1 0 0) " stroke-linecap="round" />
	<path d="M 25.972 80.659 c -0.276 0 -0.5 -0.224 -0.5 -0.5 v -4.49 c 0 -0.276 0.224 -0.5 0.5 -0.5 s 0.5 0.224 0.5 0.5 v 4.49 C 26.472 80.436 26.248 80.659 25.972 80.659 z" style="stroke: none; stroke-width: 1; stroke-dasharray: none; stroke-linecap: butt; stroke-linejoin: miter; stroke-miterlimit: 10; fill: rgb(18,34,46); fill-rule: nonzero; opacity: 1;" transform=" matrix(1 0 0 1 0 0) " stroke-linecap="round" />
	<path d="M 25.972 52.58 c -0.276 0 -0.5 -0.224 -0.5 -0.5 v -4.128 c 0 -0.276 0.224 -0.5 0.5 -0.5 s 0.5 0.224 0.5 0.5 v 4.128 C 26.472 52.356 26.248 52.58 25.972 52.58 z" style="stroke: none; stroke-width: 1; stroke-dasharray: none; stroke-linecap: butt; stroke-linejoin: miter; stroke-miterlimit: 10; fill: rgb(18,34,46); fill-rule: nonzero; opacity: 1;" transform=" matrix(1 0 0 1 0 0) " stroke-linecap="round" />
	<path d="M 36.353 21.505 h -4.851 c -1.624 0 -2.945 -1.321 -2.945 -2.945 v -3.763 c 0 -1.624 1.321 -2.945 2.945 -2.945 h 4.851 c 1.624 0 2.945 1.321 2.945 2.945 c 0 0.276 -0.224 0.5 -0.5 0.5 s -0.5 -0.224 -0.5 -0.5 c 0 -1.072 -0.873 -1.945 -1.945 -1.945 h -4.851 c -1.072 0 -1.945 0.873 -1.945 1.945 v 3.763 c 0 1.072 0.873 1.945 1.945 1.945 h 4.851 c 0.276 0 0.5 0.224 0.5 0.5 S 36.629 21.505 36.353 21.505 z" style="stroke: none; stroke-width: 1; stroke-dasharray: none; stroke-linecap: butt; stroke-linejoin: miter; stroke-miterlimit: 10; fill: rgb(18,34,46); fill-rule: nonzero; opacity: 1;" transform=" matrix(1 0 0 1 0 0) " stroke-linecap="round" />
	<path d="M 36.353 30.159 h -4.851 c -1.624 0 -2.945 -1.321 -2.945 -2.945 c 0 -0.276 0.224 -0.5 0.5 -0.5 s 0.5 0.224 0.5 0.5 c 0 1.072 0.873 1.945 1.945 1.945 h 4.851 c 1.072 0 1.945 -0.873 1.945 -1.945 V 23.45 c 0 -1.072 -0.873 -1.945 -1.945 -1.945 h -4.851 c -0.276 0 -0.5 -0.224 -0.5 -0.5 s 0.224 -0.5 0.5 -0.5 h 4.851 c 1.624 0 2.945 1.321 2.945 2.945 v 3.764 C 39.298 28.838 37.977 30.159 36.353 30.159 z" style="stroke: none; stroke-width: 1; stroke-dasharray: none; stroke-linecap: butt; stroke-linejoin: miter; stroke-miterlimit: 10; fill: rgb(18,34,46); fill-rule: nonzero; opacity: 1;" transform=" matrix(1 0 0 1 0 0) " stroke-linecap="round" />
	<path d="M 33.928 33.454 c -0.276 0 -0.5 -0.224 -0.5 -0.5 v -3.295 c 0 -0.276 0.224 -0.5 0.5 -0.5 s 0.5 0.224 0.5 0.5 v 3.295 C 34.428 33.23 34.204 33.454 33.928 33.454 z" style="stroke: none; stroke-width: 1; stroke-dasharray: none; stroke-linecap: butt; stroke-linejoin: miter; stroke-miterlimit: 10; fill: rgb(18,34,46); fill-rule: nonzero; opacity: 1;" transform=" matrix(1 0 0 1 0 0) " stroke-linecap="round" />
	<path d="M 33.928 12.853 c -0.276 0 -0.5 -0.224 -0.5 -0.5 V 9.325 c 0 -0.276 0.224 -0.5 0.5 -0.5 s 0.5 0.224 0.5 0.5 v 3.028 C 34.428 12.629 34.204 12.853 33.928 12.853 z" style="stroke: none; stroke-width: 1; stroke-dasharray: none; stroke-linecap: butt; stroke-linejoin: miter; stroke-miterlimit: 10; fill: rgb(18,34,46); fill-rule: nonzero; opacity: 1;" transform=" matrix(1 0 0 1 0 0) " stroke-linecap="round" />
	<path d="M 81.4 32.981 c -0.093 0 -0.186 -0.025 -0.269 -0.078 c -3.528 -2.248 -8.194 -3.485 -13.171 -3.434 c -0.001 0 -0.002 0 -0.003 0 c -0.274 0 -0.498 -0.222 -0.5 -0.497 c -0.002 -0.276 0.221 -0.501 0.497 -0.503 c 5.16 -0.041 10.026 1.241 13.714 3.59 c 0.233 0.148 0.302 0.458 0.153 0.69 C 81.727 32.9 81.565 32.981 81.4 32.981 z" style="stroke: none; stroke-width: 1; stroke-dasharray: none; stroke-linecap: butt; stroke-linejoin: miter; stroke-miterlimit: 10; fill: rgb(18,34,46); fill-rule: nonzero; opacity: 1;" transform=" matrix(1 0 0 1 0 0) " stroke-linecap="round" />
	<path d="M 6.058 68.141 c -0.235 0 -0.445 -0.167 -0.491 -0.406 c -0.241 -1.264 -0.363 -2.563 -0.363 -3.86 c 0 -3.17 0.704 -6.209 2.092 -9.033 c 0.121 -0.248 0.419 -0.352 0.669 -0.228 c 0.248 0.121 0.35 0.421 0.228 0.669 c -1.32 2.686 -1.99 5.576 -1.99 8.592 c 0 1.235 0.116 2.471 0.345 3.673 c 0.052 0.271 -0.126 0.533 -0.397 0.585 C 6.121 68.138 6.089 68.141 6.058 68.141 z" style="stroke: none; stroke-width: 1; stroke-dasharray: none; stroke-linecap: butt; stroke-linejoin: miter; stroke-miterlimit: 10; fill: rgb(18,34,46); fill-rule: nonzero; opacity: 1;" transform=" matrix(1 0 0 1 0 0) " stroke-linecap="round" />
	<path d="M 11.563 78.517 c -0.128 0 -0.256 -0.049 -0.354 -0.146 c -1.726 -1.727 -3.117 -3.721 -4.133 -5.928 c -0.116 -0.251 -0.006 -0.548 0.245 -0.663 c 0.25 -0.116 0.547 -0.007 0.663 0.245 c 0.967 2.099 2.29 3.996 3.932 5.639 c 0.195 0.195 0.195 0.512 0 0.707 C 11.818 78.468 11.69 78.517 11.563 78.517 z" style="stroke: none; stroke-width: 1; stroke-dasharray: none; stroke-linecap: butt; stroke-linejoin: miter; stroke-miterlimit: 10; fill: rgb(18,34,46); fill-rule: nonzero; opacity: 1;" transform=" matrix(1 0 0 1 0 0) " stroke-linecap="round" />
</g>
</svg>