<svg xmlns="http://www.w3.org/2000/svg" xmlns:xlink="http://www.w3.org/1999/xlink" version="1.1" width="30" height="30" viewBox="0 0 256 256" xml:space="preserve">

<defs>
</defs>
<g style="stroke: none; stroke-width: 0; stroke-dasharray: none; stroke-linecap: butt; stroke-linejoin: miter; stroke-miterlimit: 10; fill: none; fill-rule: nonzero; opacity: 1;" transform="translate(1.4065934065934016 1.4065934065934016) scale(2.81 2.81)" >
	<path d="M 53.879 24.155 v 31.343 l 0 26.158 v 1.603 c 0 3.171 -2.57 5.741 -5.741 5.741 c -3.171 0 -5.741 -2.57 -5.741 -5.741 v -0.904 l 0 -31.958 V 24.155 H 53.879 z" style="stroke: none; stroke-width: 1; stroke-dasharray: none; stroke-linecap: butt; stroke-linejoin: miter; stroke-miterlimit: 10; fill: rgb(245,180,26); fill-rule: nonzero; opacity: 1;" transform=" matrix(1 0 0 1 0 0) " stroke-linecap="round" />
	<path d="M 48.138 90 c -3.717 0 -6.742 -3.024 -6.742 -6.741 V 24.155 c 0 -0.552 0.448 -1 1 -1 h 11.483 c 0.553 0 1 0.448 1 1 v 59.104 C 54.879 86.976 51.854 90 48.138 90 z M 43.396 25.155 v 58.104 c 0 2.614 2.127 4.741 4.742 4.741 c 2.614 0 4.741 -2.127 4.741 -4.741 V 25.155 H 43.396 z" style="stroke: none; stroke-width: 1; stroke-dasharray: none; stroke-linecap: butt; stroke-linejoin: miter; stroke-miterlimit: 10; fill: rgb(0,0,0); fill-rule: nonzero; opacity: 1;" transform=" matrix(1 0 0 1 0 0) " stroke-linecap="round" />
	<path d="M 55.339 6.494 L 53.879 1 H 42.386 l -1.461 5.495 c -14.232 1.536 -25.639 7.528 -29.442 15.293 c 9.17 -1.776 19.063 -2.894 29.407 -3.257 l 1.495 5.624 h 11.492 l 1.496 -5.624 c 10.348 0.362 20.244 1.48 29.417 3.257 C 80.988 14.021 69.576 8.029 55.339 6.494 z" style="stroke: none; stroke-width: 1; stroke-dasharray: none; stroke-linecap: butt; stroke-linejoin: miter; stroke-miterlimit: 10; fill: rgb(169,158,158); fill-rule: nonzero; opacity: 1;" transform=" matrix(1 0 0 1 0 0) " stroke-linecap="round" />
	<path d="M 53.879 25.155 H 42.386 c -0.453 0 -0.85 -0.305 -0.966 -0.743 l -1.29 -4.852 c -9.872 0.384 -19.441 1.463 -28.457 3.21 c -0.368 0.073 -0.753 -0.072 -0.984 -0.374 c -0.23 -0.301 -0.271 -0.707 -0.104 -1.048 c 3.95 -8.066 15.237 -14.076 29.549 -15.77 l 1.286 -4.835 C 41.536 0.305 41.933 0 42.386 0 h 11.493 c 0.453 0 0.85 0.305 0.967 0.743 l 1.285 4.834 c 14.315 1.691 25.606 7.702 29.559 15.771 c 0.166 0.341 0.126 0.747 -0.104 1.048 c -0.23 0.302 -0.613 0.446 -0.984 0.374 c -9.017 -1.747 -18.589 -2.826 -28.465 -3.21 l -1.29 4.853 C 54.729 24.85 54.332 25.155 53.879 25.155 z M 43.155 23.155 h 9.955 l 1.297 -4.881 c 0.12 -0.451 0.535 -0.769 1.002 -0.743 c 9.479 0.333 18.69 1.298 27.418 2.873 C 78.349 13.825 67.843 8.848 55.232 7.488 c -0.411 -0.044 -0.753 -0.337 -0.859 -0.737 L 53.11 2 h -9.955 l -1.264 4.752 c -0.106 0.4 -0.448 0.693 -0.859 0.737 C 28.427 8.85 17.924 13.828 13.447 20.403 c 8.726 -1.574 17.935 -2.54 27.409 -2.872 c 0.47 -0.012 0.881 0.292 1.001 0.743 L 43.155 23.155 z" style="stroke: none; stroke-width: 1; stroke-dasharray: none; stroke-linecap: butt; stroke-linejoin: miter; stroke-miterlimit: 10; fill: rgb(0,0,0); fill-rule: nonzero; opacity: 1;" transform=" matrix(1 0 0 1 0 0) " stroke-linecap="round" />
	<path d="M 27.001 59.044 l 0 20.122 h 3.098 l -0.001 0.001 c 2.328 1.99 5.344 3.196 8.628 3.196 h 4.525 h 8.223 c 1.746 0 3.174 -1.428 3.174 -3.174 v -0.308 c 0 -1.746 -1.428 -3.174 -3.174 -3.174 h 2.423 c 1.746 0 3.174 -1.428 3.174 -3.174 v -0.308 c 0 -1.746 -1.428 -3.174 -3.174 -3.174 h 2.252 c 1.746 0 3.174 -1.428 3.174 -3.174 V 65.57 c 0 -1.746 -1.428 -3.174 -3.174 -3.174 h 0.181 c 1.746 0 3.174 -1.428 3.174 -3.174 v -0.308 c 0 -1.746 -1.428 -3.174 -3.174 -3.174 l -11.26 0.015 c -2.567 -0.232 -3.005 -2.082 -3.015 -5.067 c -1.215 0.09 -2.417 0.538 -3.438 1.365 l -8.365 6.767 l 0 0 h -3.252" style="stroke: none; stroke-width: 1; stroke-dasharray: none; stroke-linecap: butt; stroke-linejoin: miter; stroke-miterlimit: 10; fill: rgb(232,191,146); fill-rule: nonzero; opacity: 1;" transform=" matrix(1 0 0 1 0 0) " stroke-linecap="round" />
	<rect x="18.11" y="54.81" rx="0" ry="0" width="8.89" height="28.41" style="stroke: none; stroke-width: 1; stroke-dasharray: none; stroke-linecap: butt; stroke-linejoin: miter; stroke-miterlimit: 10; fill: rgb(119,157,188); fill-rule: nonzero; opacity: 1;" transform=" matrix(1 0 0 1 0 0) "/>
	<rect x="5.21" y="56.59" rx="0" ry="0" width="12.9" height="24.84" style="stroke: none; stroke-width: 1; stroke-dasharray: none; stroke-linecap: butt; stroke-linejoin: miter; stroke-miterlimit: 10; fill: rgb(119,157,188); fill-rule: nonzero; opacity: 1;" transform=" matrix(1 0 0 1 0 0) "/>
	<path d="M 51.89 83.355 H 39.027 c -3.295 0 -6.5 -1.143 -9.067 -3.225 l -2.764 -0.001 c -0.552 0 -1 -0.448 -1 -1 c 0 -0.553 0.448 -1 1 -1 h 3.126 c 0.238 0 0.469 0.085 0.65 0.24 c 2.25 1.925 5.111 2.985 8.055 2.985 H 51.89 c 1.214 0 2.202 -0.988 2.202 -2.202 v -0.312 c 0 -1.214 -0.988 -2.202 -2.202 -2.202 c -0.553 0 -1 -0.447 -1 -1 s 0.447 -1 1 -1 h 2.444 c 1.214 0 2.202 -0.988 2.202 -2.202 v -0.311 c 0 -1.214 -0.988 -2.202 -2.202 -2.202 c -0.553 0 -1 -0.447 -1 -1 s 0.447 -1 1 -1 h 2.272 c 1.214 0 2.202 -0.988 2.202 -2.202 v -0.311 c 0 -1.215 -0.988 -2.203 -2.202 -2.203 c -0.553 0 -1 -0.447 -1 -1 s 0.447 -1 1 -1 h 0.183 c 1.214 0 2.202 -0.988 2.202 -2.202 v -0.311 c 0 -1.214 -0.988 -2.202 -2.202 -2.202 L 45.43 56.509 c -3.721 -0.331 -4.035 -3.327 -4.043 -6.109 c -0.002 -0.552 0.444 -1.001 0.997 -1.003 c 0.001 0 0.002 0 0.003 0 c 0.551 0 0.998 0.445 1 0.997 c 0.011 3.383 0.637 3.984 2.132 4.119 l 11.27 -0.019 c 2.318 0 4.203 1.885 4.203 4.202 v 0.311 c 0 1.325 -0.616 2.509 -1.578 3.28 c 0.856 0.77 1.396 1.886 1.396 3.125 v 0.311 c 0 1.903 -1.271 3.515 -3.01 4.029 c 0.465 0.677 0.737 1.494 0.737 2.375 v 0.311 c 0 1.955 -1.343 3.603 -3.154 4.069 c 0.448 0.669 0.71 1.472 0.71 2.335 v 0.312 C 56.092 81.471 54.207 83.355 51.89 83.355 z" style="stroke: none; stroke-width: 1; stroke-dasharray: none; stroke-linecap: butt; stroke-linejoin: miter; stroke-miterlimit: 10; fill: rgb(0,0,0); fill-rule: nonzero; opacity: 1;" transform=" matrix(1 0 0 1 0 0) " stroke-linecap="round" />
	<path d="M 30.477 59.602 h -3.281 c -0.552 0 -1 -0.447 -1 -1 s 0.448 -1 1 -1 h 2.927 l 8.166 -6.605 c 1.154 -0.934 2.545 -1.486 4.023 -1.597 c 0.552 -0.046 1.031 0.372 1.072 0.923 c 0.042 0.55 -0.372 1.03 -0.922 1.071 c -1.07 0.08 -2.078 0.48 -2.915 1.157 l -8.44 6.828 C 30.928 59.523 30.706 59.602 30.477 59.602 z" style="stroke: none; stroke-width: 1; stroke-dasharray: none; stroke-linecap: butt; stroke-linejoin: miter; stroke-miterlimit: 10; fill: rgb(0,0,0); fill-rule: nonzero; opacity: 1;" transform=" matrix(1 0 0 1 0 0) " stroke-linecap="round" />
	<path d="M 47.628 63.216 c -0.552 0 -1 -0.447 -1 -0.999 c 0 -0.553 0.447 -1.001 0.999 -1.001 l 8.979 -0.007 h 0.001 c 0.552 0 1 0.447 1 0.999 c 0 0.553 -0.447 1.001 -0.999 1.001 L 47.628 63.216 L 47.628 63.216 z" style="stroke: none; stroke-width: 1; stroke-dasharray: none; stroke-linecap: butt; stroke-linejoin: miter; stroke-miterlimit: 10; fill: rgb(0,0,0); fill-rule: nonzero; opacity: 1;" transform=" matrix(1 0 0 1 0 0) " stroke-linecap="round" />
	<path d="M 47.628 69.932 c -0.552 0 -0.999 -0.447 -1 -0.999 s 0.446 -1 0.999 -1.001 l 6.706 -0.007 h 0.001 c 0.552 0 0.999 0.447 1 0.999 c 0.001 0.553 -0.446 1 -0.999 1.001 L 47.628 69.932 L 47.628 69.932 z" style="stroke: none; stroke-width: 1; stroke-dasharray: none; stroke-linecap: butt; stroke-linejoin: miter; stroke-miterlimit: 10; fill: rgb(0,0,0); fill-rule: nonzero; opacity: 1;" transform=" matrix(1 0 0 1 0 0) " stroke-linecap="round" />
	<path d="M 51.89 76.64 h -4.262 c -0.553 0 -1 -0.447 -1 -1 s 0.447 -1 1 -1 h 4.262 c 0.553 0 1 0.447 1 1 S 52.442 76.64 51.89 76.64 z" style="stroke: none; stroke-width: 1; stroke-dasharray: none; stroke-linecap: butt; stroke-linejoin: miter; stroke-miterlimit: 10; fill: rgb(0,0,0); fill-rule: nonzero; opacity: 1;" transform=" matrix(1 0 0 1 0 0) " stroke-linecap="round" />
	<path d="M 27.196 84.217 h -8.974 c -0.552 0 -1 -0.447 -1 -1 V 54.552 c 0 -0.553 0.448 -1 1 -1 h 8.974 c 0.552 0 1 0.447 1 1 v 28.665 C 28.196 83.77 27.748 84.217 27.196 84.217 z M 19.222 82.217 h 6.974 V 55.552 h -6.974 V 82.217 z" style="stroke: none; stroke-width: 1; stroke-dasharray: none; stroke-linecap: butt; stroke-linejoin: miter; stroke-miterlimit: 10; fill: rgb(0,0,0); fill-rule: nonzero; opacity: 1;" transform=" matrix(1 0 0 1 0 0) " stroke-linecap="round" />
	<path d="M 18.222 82.413 H 5.209 c -0.552 0 -1 -0.447 -1 -1 V 56.355 c 0 -0.553 0.448 -1 1 -1 h 13.013 c 0.552 0 1 0.447 1 1 v 25.058 C 19.222 81.966 18.774 82.413 18.222 82.413 z M 6.209 80.413 h 11.013 V 57.355 H 6.209 V 80.413 z" style="stroke: none; stroke-width: 1; stroke-dasharray: none; stroke-linecap: butt; stroke-linejoin: miter; stroke-miterlimit: 10; fill: rgb(0,0,0); fill-rule: nonzero; opacity: 1;" transform=" matrix(1 0 0 1 0 0) " stroke-linecap="round" />
</g>
</svg>