<svg xmlns="http://www.w3.org/2000/svg" xmlns:xlink="http://www.w3.org/1999/xlink" version="1.1" width="30" height="30" viewBox="0 0 256 256" xml:space="preserve">

<defs>
</defs>
<g style="stroke: none; stroke-width: 0; stroke-dasharray: none; stroke-linecap: butt; stroke-linejoin: miter; stroke-miterlimit: 10; fill: none; fill-rule: nonzero; opacity: 1;" transform="translate(1.4065934065934016 1.4065934065934016) scale(2.81 2.81)" >
	<rect x="25.03" y="22.53" rx="0" ry="0" width="25.61" height="8.1" style="stroke: none; stroke-width: 1; stroke-dasharray: none; stroke-linecap: butt; stroke-linejoin: miter; stroke-miterlimit: 10; fill: rgb(253,182,47); fill-rule: nonzero; opacity: 1;" transform=" matrix(1 0 0 1 0 0) "/>
	<rect x="27.03" y="14.42" rx="0" ry="0" width="25.61" height="8.1" style="stroke: none; stroke-width: 1; stroke-dasharray: none; stroke-linecap: butt; stroke-linejoin: miter; stroke-miterlimit: 10; fill: rgb(253,182,47); fill-rule: nonzero; opacity: 1;" transform=" matrix(1 0 0 1 0 0) "/>
	<rect x="26.03" y="6.32" rx="0" ry="0" width="25.61" height="8.1" style="stroke: none; stroke-width: 1; stroke-dasharray: none; stroke-linecap: butt; stroke-linejoin: miter; stroke-miterlimit: 10; fill: rgb(253,182,47); fill-rule: nonzero; opacity: 1;" transform=" matrix(1 0 0 1 0 0) "/>
	<rect x="24.03" y="30.63" rx="0" ry="0" width="25.61" height="8.1" style="stroke: none; stroke-width: 1; stroke-dasharray: none; stroke-linecap: butt; stroke-linejoin: miter; stroke-miterlimit: 10; fill: rgb(253,182,47); fill-rule: nonzero; opacity: 1;" transform=" matrix(1 0 0 1 0 0) "/>
	<rect x="27.03" y="38.73" rx="0" ry="0" width="25.61" height="8.1" style="stroke: none; stroke-width: 1; stroke-dasharray: none; stroke-linecap: butt; stroke-linejoin: miter; stroke-miterlimit: 10; fill: rgb(253,182,47); fill-rule: nonzero; opacity: 1;" transform=" matrix(1 0 0 1 0 0) "/>
	<rect x="24.03" y="46.84" rx="0" ry="0" width="25.61" height="8.1" style="stroke: none; stroke-width: 1; stroke-dasharray: none; stroke-linecap: butt; stroke-linejoin: miter; stroke-miterlimit: 10; fill: rgb(253,182,47); fill-rule: nonzero; opacity: 1;" transform=" matrix(1 0 0 1 0 0) "/>
	<rect x="1" y="56.75" rx="0" ry="0" width="13.53" height="26.95" style="stroke: none; stroke-width: 1; stroke-dasharray: none; stroke-linecap: butt; stroke-linejoin: miter; stroke-miterlimit: 10; fill: rgb(67,152,209); fill-rule: nonzero; opacity: 1;" transform=" matrix(1 0 0 1 0 0) "/>
	<path d="M 88.812 64.346 c -0.63 -2.057 -2.689 -3.321 -4.807 -2.944 c -6.373 1.135 -14.088 3.499 -21.357 5.203 l -0.001 -0.001 l 0.001 0 c -0.371 -4.127 -3.759 -7.33 -7.9 -7.47 l -1.88 -0.063 c -6.139 0 -12.817 -4.463 -18.5 -4.463 c -4.996 0 -9.818 1.085 -15.128 5.724 c -0.672 0.587 -1.535 0.919 -2.427 0.912 l -1.823 -0.083 v 17.597 h 5.352 c 1.687 0 3.369 0.185 5.015 0.552 l 14.402 3.211 c 1.3 0.29 2.63 0.427 3.962 0.407 l 7.97 -0.116 c 2.234 -0.032 4.439 -0.503 6.492 -1.386 l 28.241 -11.927 C 88.419 68.645 89.448 66.423 88.812 64.346 z" style="stroke: none; stroke-width: 1; stroke-dasharray: none; stroke-linecap: butt; stroke-linejoin: miter; stroke-miterlimit: 10; fill: rgb(254,201,163); fill-rule: nonzero; opacity: 1;" transform=" matrix(1 0 0 1 0 0) " stroke-linecap="round" />
	<circle cx="68.78" cy="47.56" r="13.72" style="stroke: none; stroke-width: 1; stroke-dasharray: none; stroke-linecap: butt; stroke-linejoin: miter; stroke-miterlimit: 10; fill: rgb(253,182,47); fill-rule: nonzero; opacity: 1;" transform="  matrix(1 0 0 1 0 0) "/>
	<ellipse cx="73.72999999999999" cy="24.524" rx="6.07" ry="3.024" style="stroke: none; stroke-width: 1; stroke-dasharray: none; stroke-linecap: butt; stroke-linejoin: miter; stroke-miterlimit: 10; fill: rgb(148,194,60); fill-rule: nonzero; opacity: 1;" transform=" matrix(0.7863 -0.6178 0.6178 0.7863 0.6001 50.7927) "/>
	<ellipse cx="68.774" cy="12.39" rx="3.024" ry="6.07" style="stroke: none; stroke-width: 1; stroke-dasharray: none; stroke-linecap: butt; stroke-linejoin: miter; stroke-miterlimit: 10; fill: rgb(148,194,60); fill-rule: nonzero; opacity: 1;" transform=" matrix(1 0 0 1 0 0) "/>
	<ellipse cx="63.824" cy="24.53" rx="3.024" ry="6.07" style="stroke: none; stroke-width: 1; stroke-dasharray: none; stroke-linecap: butt; stroke-linejoin: miter; stroke-miterlimit: 10; fill: rgb(148,194,60); fill-rule: nonzero; opacity: 1;" transform=" matrix(0.6178 -0.7863 0.7863 0.6178 5.1042 59.5589) "/>
	<path d="M 62.647 67.586 c -0.512 0 -0.948 -0.391 -0.995 -0.91 c -0.325 -3.617 -3.308 -6.437 -6.938 -6.56 l -1.88 -0.063 c 0 0 -0.001 0 -0.002 0 c -3.267 0.001 -6.639 -1.195 -9.901 -2.352 c -3.059 -1.085 -5.949 -2.109 -8.563 -2.109 c -4.055 0 -8.946 0.65 -14.47 5.477 c -0.866 0.756 -1.977 1.144 -3.093 1.159 l -2.322 -0.104 c -0.552 -0.025 -0.979 -0.492 -0.954 -1.044 c 0.025 -0.553 0.499 -0.993 1.044 -0.954 l 2.285 0.104 c 0.589 -0.035 1.227 -0.232 1.724 -0.666 c 6.022 -5.262 11.359 -5.971 15.785 -5.971 c 2.959 0 6.148 1.131 9.232 2.224 c 3.103 1.101 6.313 2.238 9.269 2.238 l 1.914 0.064 c 4.637 0.156 8.446 3.759 8.862 8.379 c 0.05 0.551 -0.356 1.036 -0.906 1.086 C 62.708 67.585 62.678 67.586 62.647 67.586 z" style="stroke: none; stroke-width: 1; stroke-dasharray: none; stroke-linecap: butt; stroke-linejoin: miter; stroke-miterlimit: 10; fill: rgb(0,0,0); fill-rule: nonzero; opacity: 1;" transform=" matrix(1 0 0 1 0 0) " stroke-linecap="round" />
	<path d="M 43.472 83.914 c -1.32 0 -2.641 -0.146 -3.931 -0.434 L 25.14 80.269 c -1.573 -0.351 -3.187 -0.528 -4.798 -0.528 h -5.814 c -0.552 0 -1 -0.447 -1 -1 c 0 -0.553 0.448 -1 1 -1 h 5.814 c 1.757 0 3.518 0.194 5.233 0.577 l 14.401 3.211 c 1.222 0.271 2.476 0.398 3.729 0.383 l 7.97 -0.115 c 2.113 -0.031 4.17 -0.471 6.112 -1.305 l 28.247 -11.93 c 1.523 -0.655 2.309 -2.351 1.821 -3.942 c -0.48 -1.573 -2.058 -2.541 -3.676 -2.253 c -3.898 0.694 -8.247 1.838 -12.85 3.049 c -12.497 3.288 -25.421 6.685 -31.218 1.368 c -0.407 -0.374 -0.435 -1.006 -0.061 -1.413 c 0.373 -0.406 1.005 -0.435 1.413 -0.062 c 4.995 4.582 17.937 1.176 29.358 -1.827 c 4.644 -1.222 9.031 -2.376 13.01 -3.084 c 2.605 -0.462 5.162 1.099 5.937 3.637 c 0.787 2.568 -0.481 5.306 -2.95 6.367 l -28.247 11.93 c -2.178 0.936 -4.489 1.43 -6.866 1.465 l -7.97 0.115 C 43.647 83.913 43.56 83.914 43.472 83.914 z" style="stroke: none; stroke-width: 1; stroke-dasharray: none; stroke-linecap: butt; stroke-linejoin: miter; stroke-miterlimit: 10; fill: rgb(0,0,0); fill-rule: nonzero; opacity: 1;" transform=" matrix(1 0 0 1 0 0) " stroke-linecap="round" />
	<path d="M 14.528 84.681 H 1 c -0.552 0 -1 -0.447 -1 -1 v -26.95 c 0 -0.553 0.448 -1 1 -1 h 13.527 c 0.552 0 1 0.447 1 1 v 26.95 C 15.528 84.234 15.08 84.681 14.528 84.681 z M 2 82.681 h 11.527 v -24.95 H 2 V 82.681 z" style="stroke: none; stroke-width: 1; stroke-dasharray: none; stroke-linecap: butt; stroke-linejoin: miter; stroke-miterlimit: 10; fill: rgb(0,0,0); fill-rule: nonzero; opacity: 1;" transform=" matrix(1 0 0 1 0 0) " stroke-linecap="round" />
	<path d="M 50.648 31.63 H 25.034 c -0.552 0 -1 -0.448 -1 -1 v -8.104 c 0 -0.552 0.448 -1 1 -1 h 25.614 c 0.553 0 1 0.448 1 1 v 8.104 C 51.648 31.182 51.201 31.63 50.648 31.63 z M 26.034 29.63 h 23.614 v -6.104 H 26.034 V 29.63 z" style="stroke: none; stroke-width: 1; stroke-dasharray: none; stroke-linecap: butt; stroke-linejoin: miter; stroke-miterlimit: 10; fill: rgb(0,0,0); fill-rule: nonzero; opacity: 1;" transform=" matrix(1 0 0 1 0 0) " stroke-linecap="round" />
	<path d="M 52.648 23.526 H 27.034 c -0.552 0 -1 -0.448 -1 -1 v -8.104 c 0 -0.552 0.448 -1 1 -1 h 25.614 c 0.553 0 1 0.448 1 1 v 8.104 C 53.648 23.078 53.201 23.526 52.648 23.526 z M 28.034 21.526 h 23.614 v -6.104 H 28.034 V 21.526 z" style="stroke: none; stroke-width: 1; stroke-dasharray: none; stroke-linecap: butt; stroke-linejoin: miter; stroke-miterlimit: 10; fill: rgb(0,0,0); fill-rule: nonzero; opacity: 1;" transform=" matrix(1 0 0 1 0 0) " stroke-linecap="round" />
	<path d="M 77.859 58.838 c -0.276 0 -0.552 -0.114 -0.749 -0.338 c -0.366 -0.414 -0.327 -1.046 0.087 -1.411 c 2.732 -2.416 4.3 -5.891 4.3 -9.534 c 0 -7.014 -5.706 -12.721 -12.721 -12.721 s -12.721 5.706 -12.721 12.721 c 0 1.559 0.278 3.081 0.828 4.525 c 0.196 0.516 -0.063 1.094 -0.579 1.29 c -0.517 0.198 -1.094 -0.063 -1.29 -0.579 c -0.637 -1.672 -0.959 -3.434 -0.959 -5.236 c 0 -8.117 6.603 -14.721 14.721 -14.721 s 14.721 6.603 14.721 14.721 c 0 4.217 -1.813 8.237 -4.976 11.032 C 78.331 58.755 78.094 58.838 77.859 58.838 z" style="stroke: none; stroke-width: 1; stroke-dasharray: none; stroke-linecap: butt; stroke-linejoin: miter; stroke-miterlimit: 10; fill: rgb(0,0,0); fill-rule: nonzero; opacity: 1;" transform=" matrix(1 0 0 1 0 0) " stroke-linecap="round" />
	<path d="M 68.682 54.439 c -0.545 0 -1.089 -0.116 -1.6 -0.349 c -0.941 -0.428 -1.659 -1.196 -2.022 -2.164 c -0.193 -0.518 0.068 -1.094 0.585 -1.288 c 0.517 -0.19 1.094 0.067 1.288 0.585 c 0.175 0.468 0.522 0.84 0.977 1.047 c 0.455 0.205 0.965 0.223 1.431 0.048 c 0.468 -0.175 0.84 -0.522 1.047 -0.977 c 0.206 -0.455 0.224 -0.963 0.048 -1.431 c -0.207 -0.554 -0.653 -0.967 -1.224 -1.134 l -1.496 -0.547 c -1.117 -0.325 -2.041 -1.182 -2.472 -2.33 c -0.749 -1.998 0.267 -4.233 2.265 -4.983 c 0.968 -0.363 2.02 -0.327 2.961 0.101 c 0.941 0.428 1.659 1.196 2.022 2.165 c 0.193 0.517 -0.068 1.093 -0.585 1.288 c -0.518 0.191 -1.094 -0.068 -1.288 -0.585 c -0.175 -0.468 -0.522 -0.839 -0.977 -1.046 c -0.454 -0.207 -0.965 -0.225 -1.431 -0.048 c -0.468 0.175 -0.84 0.522 -1.047 0.977 c -0.206 0.455 -0.224 0.963 -0.048 1.431 c 0.207 0.553 0.653 0.966 1.224 1.133 l 1.496 0.547 c 1.117 0.325 2.041 1.182 2.472 2.33 c 0.749 1.998 -0.267 4.232 -2.265 4.982 C 69.601 54.357 69.141 54.439 68.682 54.439 z" style="stroke: none; stroke-width: 1; stroke-dasharray: none; stroke-linecap: butt; stroke-linejoin: miter; stroke-miterlimit: 10; fill: rgb(0,0,0); fill-rule: nonzero; opacity: 1;" transform=" matrix(1 0 0 1 0 0) " stroke-linecap="round" />
	<path d="M 68.776 42.675 c -0.553 0 -1 -0.448 -1 -1 v -1.604 c 0 -0.552 0.447 -1 1 -1 s 1 0.448 1 1 v 1.604 C 69.776 42.227 69.329 42.675 68.776 42.675 z" style="stroke: none; stroke-width: 1; stroke-dasharray: none; stroke-linecap: butt; stroke-linejoin: miter; stroke-miterlimit: 10; fill: rgb(0,0,0); fill-rule: nonzero; opacity: 1;" transform=" matrix(1 0 0 1 0 0) " stroke-linecap="round" />
	<path d="M 68.776 56.039 c -0.553 0 -1 -0.447 -1 -1 v -1.604 c 0 -0.553 0.447 -1 1 -1 s 1 0.447 1 1 v 1.604 C 69.776 55.592 69.329 56.039 68.776 56.039 z" style="stroke: none; stroke-width: 1; stroke-dasharray: none; stroke-linecap: butt; stroke-linejoin: miter; stroke-miterlimit: 10; fill: rgb(0,0,0); fill-rule: nonzero; opacity: 1;" transform=" matrix(1 0 0 1 0 0) " stroke-linecap="round" />
	<path d="M 51.648 15.422 H 26.034 c -0.552 0 -1 -0.448 -1 -1 V 6.318 c 0 -0.552 0.448 -1 1 -1 h 25.614 c 0.553 0 1 0.448 1 1 v 8.104 C 52.648 14.974 52.201 15.422 51.648 15.422 z M 27.034 13.422 h 23.614 V 7.318 H 27.034 V 13.422 z" style="stroke: none; stroke-width: 1; stroke-dasharray: none; stroke-linecap: butt; stroke-linejoin: miter; stroke-miterlimit: 10; fill: rgb(0,0,0); fill-rule: nonzero; opacity: 1;" transform=" matrix(1 0 0 1 0 0) " stroke-linecap="round" />
	<path d="M 68.776 34.834 c -0.553 0 -1 -0.448 -1 -1 V 18.421 c 0 -0.552 0.447 -1 1 -1 s 1 0.448 1 1 v 15.413 C 69.776 34.386 69.329 34.834 68.776 34.834 z" style="stroke: none; stroke-width: 1; stroke-dasharray: none; stroke-linecap: butt; stroke-linejoin: miter; stroke-miterlimit: 10; fill: rgb(0,0,0); fill-rule: nonzero; opacity: 1;" transform=" matrix(1 0 0 1 0 0) " stroke-linecap="round" />
	<path d="M 70.841 29.804 c -0.937 0 -1.786 -0.231 -2.46 -0.709 c -0.158 -0.112 -0.28 -0.267 -0.352 -0.447 c -0.848 -2.135 0.476 -5.13 3.216 -7.283 c 2.743 -2.154 5.965 -2.73 7.838 -1.402 c 0.158 0.112 0.28 0.267 0.352 0.447 c 0.848 2.135 -0.476 5.13 -3.217 7.284 C 74.463 29.071 72.51 29.804 70.841 29.804 z M 69.805 27.613 c 1.083 0.471 3.179 0.076 5.176 -1.493 c 1.998 -1.569 2.88 -3.516 2.677 -4.676 c -1.083 -0.471 -3.181 -0.075 -5.177 1.493 C 70.484 24.507 69.602 26.453 69.805 27.613 z" style="stroke: none; stroke-width: 1; stroke-dasharray: none; stroke-linecap: butt; stroke-linejoin: miter; stroke-miterlimit: 10; fill: rgb(0,0,0); fill-rule: nonzero; opacity: 1;" transform=" matrix(1 0 0 1 0 0) " stroke-linecap="round" />
	<path d="M 68.776 19.459 c -0.096 0 -0.191 -0.014 -0.284 -0.041 c -2.202 -0.652 -3.74 -3.543 -3.74 -7.029 s 1.538 -6.377 3.74 -7.029 c 0.186 -0.055 0.383 -0.055 0.568 0 c 2.201 0.652 3.739 3.543 3.739 7.029 s -1.538 6.377 -3.739 7.029 C 68.968 19.445 68.872 19.459 68.776 19.459 z M 68.776 7.395 c -1.038 0.557 -2.024 2.453 -2.024 4.993 s 0.986 4.436 2.024 4.993 c 1.038 -0.557 2.023 -2.453 2.023 -4.993 S 69.814 7.953 68.776 7.395 z" style="stroke: none; stroke-width: 1; stroke-dasharray: none; stroke-linecap: butt; stroke-linejoin: miter; stroke-miterlimit: 10; fill: rgb(0,0,0); fill-rule: nonzero; opacity: 1;" transform=" matrix(1 0 0 1 0 0) " stroke-linecap="round" />
	<path d="M 66.712 29.804 c -1.67 0 -3.622 -0.732 -5.378 -2.111 c -2.74 -2.154 -4.063 -5.149 -3.216 -7.284 c 0.071 -0.18 0.193 -0.334 0.352 -0.447 c 1.872 -1.328 5.095 -0.753 7.837 1.402 c 2.741 2.153 4.064 5.148 3.217 7.283 c -0.071 0.18 -0.193 0.334 -0.352 0.447 C 68.498 29.572 67.649 29.804 66.712 29.804 z M 59.894 21.444 c -0.203 1.161 0.679 3.107 2.676 4.676 c 1.998 1.569 4.094 1.964 5.177 1.493 c 0.203 -1.161 -0.679 -3.107 -2.677 -4.676 C 63.074 21.369 60.977 20.972 59.894 21.444 z" style="stroke: none; stroke-width: 1; stroke-dasharray: none; stroke-linecap: butt; stroke-linejoin: miter; stroke-miterlimit: 10; fill: rgb(0,0,0); fill-rule: nonzero; opacity: 1;" transform=" matrix(1 0 0 1 0 0) " stroke-linecap="round" />
	<path d="M 49.648 39.734 H 24.034 c -0.552 0 -1 -0.448 -1 -1 V 30.63 c 0 -0.552 0.448 -1 1 -1 h 25.614 c 0.553 0 1 0.448 1 1 v 8.104 C 50.648 39.286 50.201 39.734 49.648 39.734 z M 25.034 37.734 h 23.614 V 31.63 H 25.034 V 37.734 z" style="stroke: none; stroke-width: 1; stroke-dasharray: none; stroke-linecap: butt; stroke-linejoin: miter; stroke-miterlimit: 10; fill: rgb(0,0,0); fill-rule: nonzero; opacity: 1;" transform=" matrix(1 0 0 1 0 0) " stroke-linecap="round" />
	<path d="M 27.034 47.838 c -0.552 0 -1 -0.447 -1 -1 v -8.104 c 0 -0.552 0.448 -1 1 -1 h 25.614 c 0.553 0 1 0.448 1 1 s -0.447 1 -1 1 H 28.034 v 7.104 C 28.034 47.391 27.586 47.838 27.034 47.838 z" style="stroke: none; stroke-width: 1; stroke-dasharray: none; stroke-linecap: butt; stroke-linejoin: miter; stroke-miterlimit: 10; fill: rgb(0,0,0); fill-rule: nonzero; opacity: 1;" transform=" matrix(1 0 0 1 0 0) " stroke-linecap="round" />
	<path d="M 24.034 52.942 c -0.552 0 -1 -0.447 -1 -1 v -5.104 c 0 -0.553 0.448 -1 1 -1 h 25.614 c 0.553 0 1 0.447 1 1 c 0 0.553 -0.447 1 -1 1 H 25.034 v 4.104 C 25.034 52.495 24.586 52.942 24.034 52.942 z" style="stroke: none; stroke-width: 1; stroke-dasharray: none; stroke-linecap: butt; stroke-linejoin: miter; stroke-miterlimit: 10; fill: rgb(0,0,0); fill-rule: nonzero; opacity: 1;" transform=" matrix(1 0 0 1 0 0) " stroke-linecap="round" />
</g>
</svg>